<?xml version="1.0" standalone="no"?>
<!DOCTYPE svg PUBLIC "-//W3C//DTD SVG 1.1//EN" "http://www.w3.org/Graphics/SVG/1.1/DTD/svg11.dtd" >
<svg xmlns="http://www.w3.org/2000/svg" xmlns:xlink="http://www.w3.org/1999/xlink" version="1.1">
<metadata>
Created by FontForge 20190801 at Wed May  2 17:41:34 2018
 By www-data
ThinkMakeDesign
</metadata>
<defs>
<font id="Galley" horiz-adv-x="838" >
  <font-face 
    font-family="Galley"
    font-weight="500"
    font-stretch="normal"
    units-per-em="1000"
    panose-1="2 0 6 3 0 0 0 0 0 0"
    ascent="800"
    descent="-200"
    x-height="420"
    cap-height="678"
    bbox="-191.263 -264.694 1017.95 730"
    underline-thickness="50"
    underline-position="-200"
    unicode-range="U+0020-F8FE"
  />
<missing-glyph horiz-adv-x="364" 
d="M66 33h199v600h-199v-600zM33 0v666h265v-666h-265z" />
    <glyph glyph-name=".notdef" horiz-adv-x="364" 
d="M66 33h199v600h-199v-600zM33 0v666h265v-666h-265z" />
    <glyph glyph-name=".null" horiz-adv-x="0" 
 />
    <glyph glyph-name="nonmarkingreturn" horiz-adv-x="333" 
 />
    <glyph glyph-name="space" unicode=" " horiz-adv-x="300" 
 />
    <glyph glyph-name="exclam" unicode="!" horiz-adv-x="431" 
d="M311 644l3 -3q-1 2 -3 3zM114 137q7 8 17 8q41 0 62 -32q17 -27 12 -62q-5 -36 -30 -54q-31 -22 -71 -5q-27 12 -36 43q-8 26 -1 53q8 32 31 44q8 4 16 5zM141 229q-1 39 22 117q3 40 5 59q6 74 17 123q16 66 46 113q10 15 19 24q15 16 31 20q29 8 49 -1.5t27 -33.5
q9 -30 -4 -85q-5 -21 -13 -45q-7 -21 -18 -48q-4 -10 -18 -51q-19 -53 -28 -79q-6 -17 -11 -31q-38 -99 -57 -114q-9 -7 -21 -7q-6 0 -14 3q-5 2 -11 5q-3 1 -6 3q0 1 -1 1l-1 1q-13 7 -12 21q0 3 -1 5z" />
    <glyph glyph-name="quotedbl" unicode="&#x22;" horiz-adv-x="646" 
d="M549 528q-1 -13 -8 -32q-19 -46 -93 -156q-7 -9 -18 -9q-7 0 -13 3q-9 7 -9 19q0 6 4 12l2 4q-5 141 16 211q4 12 9 22q7 20 20 37q31 42 66 47q25 4 40 -14q13 -16 11 -45q-1 -38 -27 -99zM180 361q1 42 14 124q1 4 1 6q6 41 9 64q4 36 22.5 68t43.5 48q12 9 24 11
q17 4 29 -4q14 -8 18 -26q4 -13 1 -32q-6 -34 -23 -73q-12 -28 -34 -68l-7 -14l-1 -1q-6 -10 -7 -13q-9 -16 -14 -25q-14 -27 -20 -44q-3 -10 -12 -14v-9q-1 -10 -7.5 -16t-16 -5.5t-15.5 7t-5 16.5z" />
    <glyph glyph-name="numbersign" unicode="#" horiz-adv-x="765" 
d="M463 390q-43 1 -90 3q-39 1 -77 3q-10 -45 -16 -78q-6 -34 -9 -62q71 -6 114 -3q15 1 46 7q3 1 6 1q14 72 26 129zM98 497q31 13 110 14h23q2 4 3 8q1 3 2 10q4 13 6 20q2 6 5 19q13 47 14 70q1 18 14 33.5t32 24.5t35 7q27 -4 30 -31q3 -24 -5 -55q-5 -22 -19 -54
q-3 -9 -9 -22q-11 -26 -14 -33q16 0 38 -1h8q77 -3 113 -4q3 11 6 23q11 45 37 129q1 2 2 8q3 13 8 21q11 13 30 14h5q2 1 6 2h1q5 1 6 1q3 1 5 1q12 2 19 3q6 1 10 0q4 0 7 -1q7 -2 11 -6q5 -5 6 -12q1 -3 1 -7t-1 -8l-5 -15q0 -2 -1 -4q-1 -4 -4 -10l-1 -5
q-19 -59 -32 -104q6 -10 2 -21q-1 -2 -1 -4q17 2 36 -9q5 4 11 5q9 1 16.5 -5t8.5 -15q0 -1 1 -5l2 -5q1 -5 1 -7q2 -7 3 -12q4 -14 3 -24q0 -9 -2 -15q-4 -10 -12 -16q-10 -7 -42 -9q-21 -1 -54 -2v-4q-3 -16 -5 -36q2 -2 5 -3v-1q0 -2 -1 -5q-1 -1 -1 -2q-4 -14 -8 -43v-3
q-1 -3 -1 -6q21 3 38 5q47 6 68 -1q15 -5 22 -23q3 -8 4 -21q1 -7 1 -20v-4q1 -7 0 -19v-13q0 -4 -1 -7t-2 -5q-4 -10 -14 -13q-16 -5 -87 8q-25 -2 -52 -3q-4 -17 -8 -37q-4 -16 -10 -46q-2 -12 -3 -16q-13 -61 -26 -96q-3 -8 -11 -12t-17 0q-10 -2 -21 -1q-12 0 -21 2
q-7 1 -11 4q-10 4 -13 13q-5 9 -2 34q2 18 6 49q7 40 17 102q-19 -1 -39 -1q-47 0 -122 1q-4 -4 -9 -6q-12 -69 -24 -112q-13 -48 -28 -66q-13 -17 -29.5 -18t-30.5 15q-7 8 -8 24q0 10 1 25q3 26 12 70q5 30 14 68q-22 1 -44 1v-1h-1h-1h-5q-6 0 -11 1q-11 3 -17 13
q-8 13 -7 37q0 14 3 28q2 9 8.5 14t14.5 4q33 3 75 1q4 0 8 -1q4 19 9 38q13 49 26 100q-13 1 -24 1q-40 3 -63 6q-12 1 -19 2q-14 3 -20 9q-7 7 -9 20q-2 6 -1 16q0 5 1 13v3v2q1 2 1 3q0 12 12 18q2 2 6 3z" />
    <glyph glyph-name="dollar" unicode="$" horiz-adv-x="610" 
d="M288 590l-3 -3q-8 -9 -22 -32q-21 -34 7 -85q5 -9 12 -20q27 83 51 148q-25 -1 -45 -8zM350 134q-6 21 -22 46q-21 35 -47 59q-20 -72 -34 -137q-3 -18 -13 -55q-1 -2 -1 -4q20 1 38 6q47 14 68 53q8 15 11 32zM338 668q8 -2 15 -5q7 24 14 36q3 7 8 12q10 11 23 9
q18 -1 23 -20q2 -8 1 -20q-1 -13 -8 -33q118 -38 126 -96q5 -35 -27 -51q-28 -14 -58 3q-17 11 -35 33l-7 9q-4 5 -7 9q-8 10 -17 17q0 1 -1 2q-37 -107 -61 -181l28 -32q58 -67 80 -105q38 -64 30 -118q-10 -71 -100 -129q-78 -49 -149 -41q-1 -3 -1 -6q-3 -21 -14 -49
q-7 -19 -16 -29q-8 -9 -18 -12q-13 -4 -26 4q-11 8 -13 22q0 7 3 16q1 4 4 10q1 1 3 6q2 4 6 7q5 24 11 49q-6 0 -11 1q-20 3 -50 17q-55 26 -71 65q-15 41 13 67q14 12 32 13.5t36 -8.5q30 -19 48 -68q0 -1 1 -1.5t2 -1.5l1 -1l1 -1q8 -7 14 -12q27 111 59 221
q-46 46 -67 106q-26 49 -33 102q-7 61 15 108q26 55 84 77q20 8 45 7q8 -1 21 -2q18 0 36 -4q4 0 7 -2z" />
    <glyph glyph-name="percent" unicode="%" horiz-adv-x="971" 
d="M308 635q-3 -1 -5 -3q-32 -13 -45 -36q-10 -18 -20 -67q-3 -19 -15 -59q-6 -21 -9 -31q-9 -35 -10 -59q18 -1 34 1q40 52 56 99t16 115v1v3v1q-1 6 -1 8v8q-1 11 -1 16v3zM823 334q39 -10 59 -45q35 -57 10 -147q-26 -89 -89 -135q-77 -56 -165 -12q-44 22 -47 94
q-3 61 23 128q27 72 73 109q58 46 124 21q9 -4 12 -13zM723 193q-2 -17 -4 -40q-1 -9 -2 -27q-2 -39 -5 -58q-4 -28 -12 -47q9 -1 17 -1v1q1 3 3 6q6 12 14 27q1 3 7 14l6 11q16 29 24 47q40 86 29 168h-6q-4 -3 -9 -4q-1 -1 -2 -1q-2 -3 -5 -6q-31 -26 -52 -83q-1 -3 -3 -7
zM708 285h1q1 1 2 3q-2 -2 -4 -3h1zM315 701q58 0 86 -41q22 -32 22 -86q-1 -48 -18 -107q4 -7 2 -15q-8 -37 -33 -66.5t-58.5 -44.5t-71 -17.5t-70.5 16.5q-32 7 -55 31q-36 36 -29 95q2 14 6 29q11 64 53 117q63 78 151 83q7 6 15 6zM201 17q33 63 90 132q35 42 109 121
l2 2q57 61 85 92q44 52 73 96q30 44 90 117q34 40 58 65q33 33 52 37q4 1 14 2h9h5q2 0 4 -1q8 -2 13 -8q5 -8 4 -17q0 -3 -2 -7q-1 -5 -4 -10q-5 -8 -13 -19q-1 -1 -3 -4l-18 -23q-58 -81 -179 -225q-22 -25 -28 -33q-16 -19 -28 -33q-37 -44 -64 -78q-11 -13 -34 -45
q-28 -39 -41 -56q-71 -94 -124 -124q-25 -14 -48 -17q-9 -1 -16 4.5t-8 14.5q-1 3 0 5q-1 6 2 12z" />
    <glyph glyph-name="ampersand" unicode="&#x26;" 
d="M408 647q50 5 90 -11t54 -47q8 -16 8 -40t-12 -51q-34 -73 -114 -114q-17 -9 -22 -12.5t-3 -7.5q5 -17 44.5 -92t43.5 -75q3 0 27 34t34 52q11 20 12.5 24.5t-1.5 10.5q-5 8 -21 18q-18 10 -21 17q-8 14 -2.5 32.5t19.5 23.5q8 4 92.5 3.5t94.5 1.5q19 4 29.5 -10
t7.5 -38q-3 -21 -14.5 -29.5t-36.5 -8.5h-19l-32 -37q-86 -98 -118 -135l-10 -12l23 -18q40 -32 56 -28q7 3 27 19q21 17 34 23q13 7 33.5 10.5t28.5 0.5q9 -3 13 -11t0.5 -18t-6.5 -10q-1 0 -6 -10q-6 -14 -23.5 -37.5t-33.5 -37.5q-78 -73 -152 -54q-33 9 -67 37
q-21 18 -34 28l-15 11l-22 -12q-81 -44 -169 -44q-80 -1 -131 33.5t-58 93.5q-4 36 20 81.5t65 78.5q18 15 49 44q32 30 44 35q12 7 12 10t-6 23q-5 17 -5 55q0 24 1.5 34t8.5 30q10 28 24 48q25 36 67.5 59.5t91.5 28.5zM444 584q-17 10 -34.5 3.5t-27.5 -26.5
q-8 -16 -8 -50q0 -17 1.5 -33.5t4.5 -27t5 -9.5q8 3 35.5 24.5t33.5 29.5q17 25 14 50.5t-24 38.5zM297 226.5q-16 23.5 -30 47.5l-12 23l-23 -17q-20 -15 -28.5 -26t-15.5 -30q-13 -36 1.5 -67t53.5 -51q42 -20 94 -18q36 2 40 5q4 2 -29 55q-35 55 -51 78.5z" />
    <glyph glyph-name="quotesingle" unicode="'" horiz-adv-x="395" 
d="M160 358q1 22 1 68v35q0 85 15 136q6 22 25.5 44.5t41.5 34.5q31 16 54 4q26 -14 28 -57q2 -30 -13 -68q-11 -27 -33 -65q-7 -12 -18 -30q-27 -43 -37 -61q-16 -31 -20 -51q-2 -8 -8 -13t-14 -5h-4q-8 2 -13 8t-5 14q0 1 1 3q-1 1 -1 3z" />
    <glyph glyph-name="parenleft" unicode="(" horiz-adv-x="523" 
d="M128 -232q-59 111 -68 241t32 258q38 123 114.5 227.5t178.5 174.5q4 3 6 6q6 7 15 7.5t15 -4.5q8 3 16.5 0t11.5 -11q7 -13 2 -28q-3 -9 -11 -19q-9 -10 -25 -22q-2 -2 -11.5 -9t-10.5 -8q-52 -40 -98.5 -123t-79.5 -190q-32 -102 -42.5 -199t2.5 -163q1 -5 0 -9
q1 -3 10 -32q2 -8 4 -13q6 -21 8 -35q4 -21 0 -35q-3 -8 -11 -15q-4 -4 -10 -7q-11 -6 -20 -7t-17 4q-7 3 -11 11z" />
    <glyph glyph-name="parenright" unicode=")" horiz-adv-x="359" 
d="M173 61v-3q0 1 1 2q0 1 -1 1zM230 685q40 -45 53 -113q4 -26 6 -60q1 -20 1 -59q0 -6 -3 -11v-13q1 -6 2 -10q1 -5 -1 -10q2 -152 -38 -277q-61 -191 -221 -318q-30 -32 -54 -45q-39 -21 -69 -1q-12 8 -9 22q-2 9 3 17q4 12 17 15h4q2 1 3 1q95 61 154 183q53 107 83 272
q11 60 21 139q3 28 8 67l1 12q1 11 3 25t2 22q-15 49 -42 84q-6 7 -5 15.5t7 14.5q3 6 8 9l1 1q1 1 3 2q5 4 10 7q2 1 3 2q7 4 12 6q3 2 6 3h1q7 6 15.5 5t14.5 -7z" />
    <glyph glyph-name="asterisk" unicode="*" horiz-adv-x="698" 
d="M424 487q-3 -13 -4 -26q23 3 52 4h16q8 3 15 5q50 17 79 11q23 -4 35.5 -21t10.5 -45q-1 -21 -10 -37q-14 -24 -39 -28t-57 12q-5 3 -17 9h-1q-7 1 -15 1q-24 2 -53 5h-7q14 -14 25 -27q24 -28 38 -51q22 -38 19 -67q-5 -40 -52 -57q-49 -17 -70 24q-6 12 -10 33
q-2 11 -4 34q-1 9 -1 12q-5 53 -19 64q-10 -14 -18 -36l-1 -2q-1 -2 -2 -4.5t-1 -3.5q-2 -7 -4 -11q-11 -27 -25 -41q-21 -22 -51 -20q-17 1 -39 15q-25 15 -36 29q-14 19 -8 39q5 15 21 28q10 8 28 18q5 2 13 6q9 5 12 6q26 13 37 22q13 10 14 17q2 9 -10 23q-17 22 -61 50
q-39 10 -53 41q-18 40 8 81q12 19 29 28q22 12 43 4q42 -16 56 -99q15 -14 42 -43q0 11 1 21q2 62 16 104q8 23 14 32q2 4 4.5 6.5t5.5 4.5q4 5 8 8q18 14 37 4q1 -1 3 -2h4q8 -1 17 -6q4 -2 12 -7q31 -20 21 -60q-6 -22 -30 -55q-5 -7 -13 -18l-6 -8q-6 -8 -8 -10
q-7 -10 -11 -16z" />
    <glyph glyph-name="plus" unicode="+" horiz-adv-x="734" 
d="M115 391q78 3 124 3q41 0 77 -3v13q0 2 1 15l1 27v20q1 33 2 53q1 53 0 68q-1 9 5 16t15 7q5 1 9 -1q4 2 7 2q4 0 6 -1t5 -1q4 0 24 -4q15 -3 24 -7q17 -6 24 -18q8 -14 10 -93q2 -37 2 -87q2 -1 6 -1q50 -4 77 -6q48 -3 84 -3h1h3h1q3 1 5 1h11q5 -1 9 -2q10 -5 13 -14
q5 -13 3 -42q-1 -15 -3 -35q-1 -6 -4 -10q-1 -4 -4 -8q-5 -7 -14 -9t-16 3q-1 1 -3 2q-31 0 -95 -2q-34 -1 -51 -1h-23q-1 -157 -5 -211q3 -6 3 -12q-1 -9 -7.5 -15t-15.5 -6q-34 2 -56 17q-7 1 -12 1q-17 3 -27 11q-7 7 -11 21q-3 9 -4 22q-3 23 -4 62q-1 43 0 109
q-48 1 -91 1q-47 1 -74 2q-16 1 -25 2q-5 0 -8 1q-9 1 -11.5 2.5t-6.5 8.5q-6 9 -6 24q1 8 3 21q0 5 2 11q1 7 2 13q-3 4 -3 10q0 9 6 15.5t15 7.5z" />
    <glyph glyph-name="comma" unicode="," horiz-adv-x="319" 
d="M22 -196q-7 -9 -19 -8q-8 0 -14 6q-1 0 -2 1q-10 8 -9 20q0 8 8 22q6 11 19 11q6 5 15 6q58 2 103 36q20 15 29 29q6 9 12 24q1 1 2 3l2 6l2 4l1 3q2 4 3 8q-26 -1 -49 13q-27 18 -40 49q-14 32 -4 59q11 34 51 37q59 3 89 -27q25 -25 24 -64q9 -11 1 -24l-6 -10
q-3 -11 -9 -20q-16 -78 -81 -126q-20 -16 -54 -36q-15 -10 -55 -18q-11 -3 -19 -4z" />
    <glyph glyph-name="hyphen" unicode="-" horiz-adv-x="417" 
d="M18 157q0 20 13 59q6 20 13 32q4 9 9 14q8 9 17 12q20 5 131 8q47 1 80 0q42 -1 52 -6q9 -4 13 -14q2 -6 2 -13q-1 -7 -4 -17q-3 -8 -8 -16q-5 -17 -9 -31q-6 -17 -11 -27q-9 -18 -20 -23q-7 -4 -49 -5q-33 0 -80 1q-46 0 -81 1q-40 1 -47 3h-1q-8 1 -14 7t-6 15z" />
    <glyph glyph-name="period" unicode="." horiz-adv-x="277" 
d="M149 141q19 2 34 -13q18 -17 24 -52q7 -55 -25 -72q-28 -17 -61 8q-31 22 -33 56q-4 42 37 71q12 8 24 2z" />
    <glyph glyph-name="slash" unicode="/" horiz-adv-x="795" 
d="M604 683q11 -1 32 1q6 1 15 2l28 4q18 2 28 -2q12 -5 16.5 -16t-0.5 -23t-23 -29q-17 -18 -51 -51q-59 -64 -124 -145q-61 -76 -177 -230q-1 -2 -2.5 -3.5t-1.5 -2.5q-98 -130 -150 -196q-6 -7 -15 -8.5t-16 4.5q-1 0 -1 1q-7 -1 -15 -3q-11 -1 -37 -5q-39 -6 -60 -9
q-9 -1 -16 4.5t-8 14.5q-2 14 9 21q2 4 4 7q99 132 150 198q221 288 389 457q6 5 13 6q6 4 13 3z" />
    <glyph glyph-name="zero" unicode="0" horiz-adv-x="621" 
d="M416 602q-36 -2 -63 -24q-69 -101 -118 -289q-31 -121 -30 -196q1 -35 9 -49q3 1 6 1q11 0 28 17q19 19 39 58q40 72 75 190q32 109 47 204q6 45 7 75v13zM70 196q8 179 74 310q41 82 99 127q69 52 156 52q11 0 18 -9h2q28 -4 49 -20q33 -17 53 -47q39 -56 29 -170
q-10 -105 -56 -213q-48 -114 -115 -178q-59 -57 -122 -60q-27 -6 -53 -3q-52 7 -84.5 42t-43.5 93q-6 31 -5 69q-2 3 -1 7z" />
    <glyph glyph-name="one" unicode="1" horiz-adv-x="567" 
d="M318 579v1h-1q1 0 1 -1zM74 63q48 -12 75 10q17 14 38 55q17 65 60 203v1q24 76 36 119q1 6 3 20.5t3 23.5q5 47 -5 57q-7 6 -20 7q-7 1 -22 0q-12 -1 -18 -1q-14 1 -23 7q-13 10 -13 29q1 11 8 27q3 8 11.5 11.5t17.5 -0.5q5 -2 8 -6q37 -12 87 0q50 11 90 39
q11 9 17 13q5 4 10 7q14 9 24 11t19 -2q12 -5 16 -17q2 -6 2 -13q-1 -3 -2 -7q-2 -6 -5 -14q-3 -6 -8 -15q-8 -80 -65 -261q-53 -171 -98 -279q7 -12 18 -21q4 -3 9 -5q2 -1 3 -1q11 -2 24 -2q17 1 22 -16q12 -7 11 -21q-4 -28 -33 -35q-17 -4 -41 1l-8 2q-2 0 -5 -1
q-39 -5 -104 -5q-45 0 -104 2q-10 1 -23 1q-1 0 -8.5 0.5t-8.5 0.5q-6 0 -11 3q-3 0 -6 1q-9 2 -14 9.5t-3 16.5q0 2 1 6q2 9 4 14t5 10q2 8 9.5 12.5t16.5 2.5z" />
    <glyph glyph-name="two" unicode="2" horiz-adv-x="603" 
d="M360 307l-4 -6q2 3 5 5q0 1 -1 1zM69 34q-1 0 -1 1v-1h1zM149 63q-2 0 -3 -1q1 0 3 -1v2zM173 460q-33 29 -40 63.5t12 67.5q33 57 117 85q86 30 159 4q88 -30 109 -128q3 -14 3 -28q4 -80 -69 -172q-51 -64 -154 -148q-20 -17 -51 -42q-5 -4 -13 -10q-9 -7 -12 -10
q-15 -11 -24 -19q-8 -6 -15 -12q23 1 67 1h6q78 0 115 4l1 1h3h2q3 1 5.5 1t4.5 -1q3 0 5 -1q6 -2 10 -6q5 -6 6 -15q0 -4 -1 -8q-1 -6 -4 -13q-3 -10 -12 -26q-1 -3 -3 -7l-3 -6q-2 -11 -3 -19q-4 -24 -7 -34q-4 -10 -9 -15q-24 -20 -44 -3q-10 8 -16 26q0 1 -1 4h-11h-5
q-17 -2 -24 -1q-56 3 -133 0q-22 -1 -68 -3q-27 -1 -41 -2q-10 0 -16.5 6t-6.5 15q-1 12 9 19q1 4 4 15v1q2 12 4 17q4 12 9 19q13 18 33 38q23 22 61 51q13 10 33 26q12 9 17 13q13 9 18 13q75 57 110 95q50 54 59 104q15 76 -8 132q-19 45 -54 64q-28 14 -49 4l-4 -4
q-11 -13 -7 -50v-5l3 -27q0 -16 -3 -29q-9 -35 -47 -51q-16 -7 -26 6h-1z" />
    <glyph glyph-name="three" unicode="3" horiz-adv-x="619" 
d="M306 415q3 3 8 6q48 36 73 57q5 12 8 26q12 46 1 82q-10 30 -31 35q-27 5 -70 -31q-3 -10 -6 -29q-1 -9 -2 -13q-4 -27 -11 -43q-11 -25 -31 -40q-7 -5 -16 -4q-16 -2 -23 12q-28 51 -19.5 94.5t48.5 73.5q32 23 78 33.5t93 6.5q47 -5 79 -25q14 -8 23 -18q17 -13 28 -31
q23 -39 8 -82q-11 -33 -45 -65q-26 -24 -66 -48q-26 -16 -60 -33l-1 -1q46 -18 64 -52q4 -7 6 -14q11 -7 11 -20v-1q8 -7 8 -16q2 -66 -20.5 -126.5t-65.5 -104.5q-85 -87 -207 -78q-22 -2 -45 5q-40 11 -73.5 44.5t-39.5 66.5q-3 22 8 38.5t34 21.5q28 6 55 -18
q14 -11 37 -41q16 -21 23 -29q10 -11 17 -14q25 -10 48 11q21 20 42 67q8 18 17 43q0 1 3 9t5 15l4 11q15 40 19.5 76t-2.5 52q-5 10 -16 8q-10 -1 -23 -7q-29 -20 -55 -43q-7 -6 -16 -5.5t-15 7.5q-3 3 -4 7q-6 7 -6 16t7 15q36 35 114 93z" />
    <glyph glyph-name="four" unicode="4" horiz-adv-x="611" 
d="M265 292q25 95 46 156q15 46 30 85q-30 -35 -61 -65q-5 -6 -13 -13q-3 -4 -3 -5h-1q-51 -63 -77 -93q-30 -35 -56 -63q31 -3 75 -3q14 0 43 1h17zM187 27v1q0 -1 -1 -1h1zM127 59q27 0 42 9q11 7 24 25q0 1 4 7t5 7q6 9 12 15q4 6 9 11q7 27 18 69q-25 -3 -48 -4
q-80 -3 -123 14q-5 2 -9 5q-23 3 -33 8q-27 11 -19 38q4 14 22 36q12 14 44 49q4 5 9 7q1 4 5 8q53 63 123 135q46 48 128 130l12 12l16 16q11 10 19 18v2q-2 9 3.5 16t14.5 8q20 3 54 0h3q32 -3 48 0q4 0 9 -1h3q9 -1 15 -8t5 -16q-2 -23 -12 -49q-6 -16 -20 -45
q-7 -14 -10 -21q-8 -17 -12 -30q-17 -55 -45 -166q-4 -14 -5 -20q-10 -37 -16 -62q14 0 34 23q2 3 5 7q2 1 3 3l1 1q2 2 2 3q7 9 11 13q10 10 21 11t19 -5q6 -4 9 -11q5 -10 3 -21q-2 -6 -5 -13q-2 -3 -4 -7q-3 -6 -4 -6q0 -1 -1 -2q-6 -14 -13 -24q-17 -27 -41 -36
q-10 -3 -23 -5q-7 0 -21 -1h-16l-6 -20q-19 -58 -39 -105l1 -1q29 -29 57 -29q9 0 15.5 -6.5t6.5 -15.5q0 -4 -1 -8q4 -11 2 -26q-1 -9 -8.5 -14t-16.5 -4q-4 0 -7 2q-31 0 -96 -1q-30 -1 -45 -1q-93 -1 -152 2q-12 0 -18 10q-10 10 -6 23v2l1 1v1v1h1v1v1l1 1l2 8
q4 11 15 15q7 10 18 10z" />
    <glyph glyph-name="five" unicode="5" horiz-adv-x="652" 
d="M373 52q-54 -49 -134 -71q-51 -13 -92 -8q-9 1 -17 3q-6 1 -13 3q-12 4 -24 12q-10 6 -19 13q-27 16 -44 44q-18 30 -13 54q3 19 20 26q8 4 18 2q14 3 33 -5q14 -7 27 -20q7 -7 19 -21l1 -1q21 -26 35 -30q62 -16 111 55q47 68 58 168q5 44 0 76.5t-18 45.5q-9 9 -27 3
q-27 -10 -64 -51q-6 -17 -8 -22l-4 -6q-8 -12 -22 -10h-2h-3l-8 2q-9 2 -15.5 5.5t-10.5 8.5q-6 8 -5 18q3 40 19 89q9 30 31 87v1q19 47 26 70q13 38 18 68q2 10 10 15q5 4 12 5q8 1 24 1q9 0 14 -1q5 0 9 -2q3 -1 5 -3q42 -2 109 1q11 0 34 1q65 3 97 3q9 0 15.5 -6.5
t6.5 -15.5q0 -7 -4 -13q4 -8 1 -16q-1 -1 -2 -4q0 -1 -2 -10t-3 -11q-4 -15 -8 -24q-8 -17 -21 -23q-28 -14 -142 -12q-35 0 -79 2q-7 0 -23 1q-9 -24 -18 -53q-8 -22 -15 -44q46 21 90 9q60 -16 95 -85q33 -63 28 -139q-6 -82 -54 -139l-1 -2q-2 -2 -3.5 -4t-3.5 -4l-3 -3
q-14 -17 -27 -25q-7 -5 -14 -8z" />
    <glyph glyph-name="six" unicode="6" horiz-adv-x="676" 
d="M499 644v1h-2q1 0 2 -1zM278 342l-8 -10q-42 -66 -56 -124q-1 -4 -5 -8q-15 -58 -17 -103q3 -4 3 -8q2 -15 12 -29q10 -12 17 -11q49 3 84 77q32 69 36 158q1 39 -4 68q-1 3 -2 5q-5 3 -11 4q-25 4 -49 -19zM454 120q-22 -42 -56 -74q-58 -54 -126 -59q-71 -4 -126 50
q-29 21 -45 53q-3 3 -5 6q-14 24 -18 50q-2 10 4 17q-1 15 0 32q5 97 69 221q39 77 90 143q32 62 87 97q66 42 147 37q75 -5 112 -44q22 -23 19.5 -50.5t-29.5 -49.5q-29 -24 -61 -4q-11 6 -24 19q-4 5 -10 12q-1 0 -2 2l-3 4q-2 2 -3 4l-2 1q-9 10 -16 16q-24 1 -42 -4
q-57 -71 -110 -170q51 12 92 -15q46 -29 69 -99q4 -10 6 -20q14 -40 10 -85q0 -8 -1 -15q-4 -51 -26 -75z" />
    <glyph glyph-name="seven" unicode="7" horiz-adv-x="678" 
d="M599 629q5 -15 -9 -24q-1 -1 -3 -4q-4 -4 -10 -11q-10 -14 -26 -38q-28 -41 -70 -110q-63 -102 -114 -191q0 -1 -5 -9.5t-11 -20.5t-10 -18q-27 -48 -51 -87q-26 -41 -48 -71q-44 -56 -77 -70q-26 -11 -47 2q-20 12 -30 43q-2 7 0 16q1 5 3 11q4 10 13 24q15 24 44 64
q45 60 138 176q4 5 9 11l11 14q11 13 27 32.5t33 40.5t32 39.5t22 27.5q34 42 52 66q-18 -2 -41 -3q-8 0 -25 -1q-78 -3 -109 -9q-34 -7 -47 -20l-2 -4q0 -1 -1 -2q-1 -4 -2 -6l-2 -4q-2 -4 -5 -6q-6 -7 -13 -10q-17 -6 -28 7q-6 6 -7 17q-1 6 0 13q2 14 8 37q-1 12 4 30
q5 15 14 37q2 6 4 11q1 0 4 7v1v1q12 35 15 43q4 8 12.5 11.5t16.5 -0.5q5 -2 8 -6q2 0 5 -1q5 -1 8 -4q42 0 136 -6q77 -4 116 -5q24 -1 45 -1q9 0 15.5 -6.5t6.5 -15.5q0 -11 -9 -18z" />
    <glyph glyph-name="eight" unicode="8" horiz-adv-x="618" 
d="M300 369q1 0 3 1q7 3 16 11q19 17 40 48q47 70 58 133q5 30 -2 46q-7 14 -25 17h-3l-4 -2q-24 -15 -36 -25q-15 -14 -22 -31q-9 -23 -16 -60q-2 -10 -6 -33q-11 -61 -7 -92q1 -9 4 -13zM387 345q66 -29 85 -89q21 -66 -22 -142q-40 -72 -112 -112q-81 -44 -160 -21
q-80 23 -108 96q-23 62 -1 138q21 72 69 114q33 29 70 34q-28 24 -39 59q-19 58 11 127q29 65 86 105q57 39 120 33q65 1 109 -34q53 -42 54 -115q0 -72 -53 -128q-43 -45 -109 -65zM434 213q-1 -18 -9 -48q9 25 9 48zM296 315q-28 -6 -55 -53t-38 -110q-12 -60 -2 -97
q4 -16 10 -22q5 -4 13 -2q24 4 51.5 47t43.5 101q16 59 10 98q-4 34 -24 36q-4 1 -7 3q-1 -1 -2 -1z" />
    <glyph glyph-name="nine" unicode="9" horiz-adv-x="598" 
d="M312 249q-14 -3 -23 -5q-18 -3 -33 -1q-30 2 -56 20q-39 19 -55 66q-25 74 14 179q38 103 106 153q67 49 133 19h1q9 5 19 2q7 -1 15 -6q78 -44 93 -150q11 -88 -24 -201q-33 -106 -93 -194.5t-122 -119.5q-24 -12 -66.5 -19t-79.5 -5q-49 3 -79 22q-40 24 -40 71
q0 33 11 47q10 11 24 12q10 0 21 -6q12 -6 29 -23q8 -9 29 -31q3 -4 5 -6q19 -21 29 -30q11 6 31 15l2 1q32 13 44 27q14 15 24 39q7 17 16 50q1 1 1 2v2q11 39 19 57q2 7 5 13zM315 312q29 16 58.5 58.5t44.5 92.5q17 58 7 96q-10 36 -46 41q-4 1 -7 3q-42 -41 -75 -130
q-32 -85 -36 -157q1 -3 2 -5h4q12 0 28 5q11 3 20 -4z" />
    <glyph glyph-name="colon" unicode=":" horiz-adv-x="362" 
d="M197 409q15 9 33 3q25 -9 45 -44q21 -35 17 -64q-4 -21 -20.5 -32t-41.5 -9q-37 2 -60.5 38.5t-12.5 73.5q7 24 28 32q6 2 12 2zM96 136q6 6 14 8q17 6 38 -5q19 -10 31 -36q8 -18 11 -39q6 -48 -27 -75q-18 -15 -37.5 -15t-35.5 15q-24 21 -32 61q-8 43 10 68
q11 14 28 18z" />
    <glyph glyph-name="semicolon" unicode=";" horiz-adv-x="344" 
d="M234 270q-34 -18 -73 4q-15 9 -22 28q-4 13 -3 29q6 72 42 87q18 7 39 -2q14 -6 27 -20q8 -3 14 -8q15 -13 17 -35q0 -9 -2 -20q1 -2 1 -4q1 -22 -9.5 -37.5t-30.5 -21.5zM4 -134q39 13 85 26q24 7 29 10q6 4 18 22q0 1 8 12.5t11 15.5q8 13 17 25q1 4 1 8q-13 -3 -29 0
q-31 8 -53 36q-23 29 -15 61q7 28 33 45t54 11q9 -2 17 -6q6 6 14.5 5.5t14.5 -6.5q48 -48 44 -109q-3 -52 -43 -103q-35 -46 -88 -77.5t-102 -35.5q-9 0 -16 5.5t-8 14.5v3q-4 4 -5 9q-3 8 1 16.5t12 11.5z" />
    <glyph glyph-name="less" unicode="&#x3c;" horiz-adv-x="743" 
d="M103 384q69 43 196 94q6 2 60 23.5t68 26.5l14 6q52 21 110 48q6 2 12 6l3 1l6 3l8 4q4 2 7.5 4t5.5 2q18 9 31 9q24 1 34 -21q7 -15 5 -43v-3q1 -1 1 -4v-2q1 -2 1 -3v-7q2 -10 1 -17q0 -5 -1 -10q-2 -8 -7 -14q-5 -4 -65 -30q-53 -22 -127 -53q-139 -58 -192 -78
q20 -9 48 -21q2 -1 3 -2q92 -39 137 -61q3 -2 6 -5q7 -2 15 -5q14 -4 41 -10q2 -1 8 -2l5 -2q8 -2 14 -3q61 -15 91 -33q8 -5 13 -14q8 -3 12.5 -10.5t1.5 -16.5q-1 -3 1 -17q1 -1 1 -3q3 -20 2 -29q-2 -25 -24 -33q-7 -2 -15 0q-3 1 -7 3q-6 2 -17 7q-17 7 -55 24
q-126 57 -167 76l-18 8q-209 93 -246 98q-9 1 -14.5 8.5t-4.5 16.5v2q-6 5 -7 13q-1 9 -1 15v4q0 3 0.5 8t0.5 9q-1 1 -2 3q-5 8 -3 16.5t10 13.5z" />
    <glyph glyph-name="equal" unicode="=" horiz-adv-x="735" 
d="M121 279q70 -8 202 0q11 1 30 3q89 6 132 6q70 2 122 -7h1h7h4h11q4 0 6.5 -0.5t4.5 -1.5q8 -3 12 -10q1 -1 2 -3q8 -7 8 -17v-5q0 -1 1 -4v-4v-22q0 -15 -1 -25q-1 -8 -3 -13q-3 -9 -10 -15q-10 -9 -41 -12q-22 -3 -61 -4q-63 -2 -172 0q-49 1 -115 2q-11 1 -47 2t-37 1
q-39 1 -52 1q-9 0 -15.5 6t-6.5 16q0 3 1 7q-1 4 -3 8q-3 10 -3 27v18v11v5q-2 5 -2 11q2 9 9 14.5t16 4.5zM126 515q91 -8 228 -8q30 0 89 1q74 1 110 1h2q2 1 6 2q3 0 8 2q1 0 5 1t5 1q6 2 11 3q19 5 31 5q10 1 17 -1q12 -3 19 -12q8 -10 8 -31q0 -11 -2 -29q-1 -6 -2 -14
q0 -1 -0.5 -4.5t-1.5 -7.5t-1 -6q0 -3 -1 -6v-3q0 -9 -6.5 -15t-15.5 -6q-10 0 -17 8q-1 0 -4 1q-13 2 -36 2q-14 1 -33 1q-50 -2 -176 -7q-127 -5 -175 -7q-38 -1 -58 -2h-17h-6q-7 0 -12 3q-10 6 -13 18q-2 7 -3 16q0 12 3 31q4 30 10 47q5 12 18 14q5 3 10 2z" />
    <glyph glyph-name="greater" unicode="&#x3e;" horiz-adv-x="730" 
d="M106 194q52 22 158 62q4 2 5 2q2 1 5 2q77 29 119 46q30 13 57 25q-48 18 -101 40q-163 68 -218 107l-6 -2q-10 0 -16.5 6.5t-6.5 15.5l-2 20q-1 13 -1 23q-1 19 0 31q1 8 2 14q4 11 11 17q9 8 20 4q2 0 3 -1q1 0 3 -1t5 -3q5 -3 15 -8l6 -4q5 -3 7 -3q5 -4 6 -4
q68 -34 96 -47q92 -45 160 -73q81 -34 147 -51q91 -24 79 -116q-1 -9 -8 -14.5t-16 -4.5q-4 0 -7 1q-68 -33 -213 -93q-1 0 -2 -1q-83 -34 -125 -52q-63 -28 -112 -54q-22 -13 -42 -27q-8 -5 -17 -3t-14 9q-3 4 -3 9q-3 4 -5 9q-4 19 -3 53v11q1 20 1 29q-1 1 0 3
q-2 16 13 23z" />
    <glyph glyph-name="question" unicode="?" horiz-adv-x="551" 
d="M133 134q11 12 25 14q22 4 37 -16q11 -14 18 -42q10 -42 -10 -69q-20 -25 -53 -22q-32 3 -50 30q-20 28 -12 69q7 29 30 35q7 2 15 1zM165 303q-2 27 -2 42q0 27 6 42q9 23 32 23q13 -1 28 -11q7 -5 21 -17l2 -2q12 -10 18 -14q1 0 2 -1q4 1 8 1q27 22 46 83
q21 65 16 119q-4 47 -25 50q-5 1 -9 3q-8 -8 -23 -27l-1 -2h-1q-14 -19 -24 -29q-19 -19 -36 -25q-22 -7 -39 4q-28 18 -19 63q7 41 40 65q28 20 66 19q39 12 75 1q31 -10 56 -36q8 -4 15 -9q13 -9 28 -29q47 -62 33 -143q-12 -71 -63 -125q-53 -56 -115 -61q-21 -1 -40 4
q-1 -3 -1 -6l-1 -2q0 -2 -1 -2q0 -2 -1 -4q-10 -39 -22 -59q-5 -9 -17 -14q-8 -2 -16 -3q-10 -1 -18 0q-6 2 -11 5q-7 4 -11 13q-6 15 -1 41q2 12 8 34q-2 4 -3 9z" />
    <glyph glyph-name="at" unicode="@" horiz-adv-x="917" 
d="M339 292q-7 -28 -12 -67q-4 -28 -6 -64q-1 -13 -2 -30q0 -3 -1 -15v-12q-1 -24 -2 -35q2 2 5 4q90 86 142 240q0 47 -10 69q-3 5 -5 8l-10 2q-5 -3 -12 -3h-1q-41 -21 -86 -97zM579 34q4 2 7 4q33 16 63 49q116 127 103 261q-5 58 -35 109t-79 89q-102 78 -229 65
q-140 -14 -242 -142q-36 -45 -60.5 -106t-32.5 -127q-17 -146 49 -242q39 -57 116.5 -92t176.5 -41q94 -6 180 15.5t139 64.5q17 15 31 38q8 15 23 48q10 25 17 38q4 8 12.5 11t16.5 -1t11 -13t-1 -17q-6 -11 -16 -35q-15 -36 -25 -53q-18 -30 -41 -50q-60 -49 -154 -73
t-196 -17q-109 6 -195 46t-132 106q-75 109 -55 272q8 72 35 139t66 117q114 142 273 158q69 7 137 -12.5t123 -62.5q56 -42 90 -101.5t41 -126.5q15 -153 -114 -295q-36 -39 -77 -59q-52 -25 -101 -12q-11 4 -15 15q-44 13 -61 50q-13 30 -7 74q-33 -49 -70 -84
q-51 -48 -92 -32q-33 13 -49 66q-10 36 -11.5 86t6.5 79q18 72 71 126q48 48 106 65q28 8 53 6q20 2 35 -9q8 -3 14 -8q11 -8 18 -19q11 20 30 34t40 17q35 6 49 -22q13 -25 -2 -69q-9 -25 -31 -81q-30 -76 -41 -117q-16 -54 -18 -100q2 -5 5 -9q12 -19 30 -16q8 1 15 -4z
" />
    <glyph glyph-name="A" unicode="A" horiz-adv-x="722" 
d="M416 307q0 6 -1 13q-1 28 -6 83q-4 58 -6 84q-34 -51 -76 -110q-29 -42 -58 -81q18 1 53 5q11 1 17 2q40 4 65 4h12zM51 91q32 59 79 127q30 42 89 120l5 6q4 6 5 7q5 8 9 13q52 68 81 110q14 20 45 60q34 43 49 66q8 12 30 36q4 4 7 8q7 12 10 20q1 1 1 2q3 8 10 12.5
t15 3.5h1h2q3 0 9 -1h25q1 0 5 -0.5t8 -0.5h3h14h8q2 -1 3 -1h2q2 0 4 -1q6 -2 11 -8q9 -13 9 -35q0 -14 -3 -34q-1 -7 -3 -17q-5 -27 -6 -32q-7 -133 -9 -243q-3 -184 12 -216q5 -12 12 -15q5 -3 22 -5q1 0 4 -1h1q3 0 5 -1q12 -1 17 -12q20 -18 4 -46q-3 -4 -6 -6
q-1 -1 -4.5 -3.5t-4.5 -2.5q-4 -4 -9 -4q-36 -6 -103 -1h-4q-52 4 -77 2q-7 -1 -20 -1q0 -1 -1 -1q-24 -1 -36 -2q-31 -2 -42 0q-5 1 -9 2q-8 4 -13 11q-6 10 -1 21q2 5 6 9q6 6 24 16q1 0 4 2l3 2q4 2 7 4q9 5 15 9q32 20 39 35q6 56 5 126q-30 -1 -95 -5q-76 -6 -111 -6
q-20 -26 -36 -47q-2 -6 -6 -14q-2 -4 -9 -21q-5 -11 -8 -19q-10 -26 -7 -35l2 -1q4 -2 16 -4q1 -1 2 -1h1h2q14 -3 22 -6q18 -7 23 -22q7 -23 -7 -39q-10 -12 -30 -17q-24 -6 -70 -5q-19 1 -44 3q-3 1 -14 2l-10 1q-11 1 -14 1q-21 0 -36 4q-8 3 -14 7q-9 7 -12 17
q-3 13 5 24q6 6 15 11q13 6 35 8q7 1 14 5q4 7 12 10q2 3 4 5z" />
    <glyph glyph-name="B" unicode="B" horiz-adv-x="754" 
d="M194 666q19 5 86 -1q41 -3 136 -4q102 -1 130 -6q82 -15 112 -44t26 -91q-2 -36 -13 -61t-35 -48q-37 -37 -103 -57q-28 -8 -32 -9q-5 -2 6 -8q24 -15 51 -45t41 -58q21 -43 21 -83q1 -30 -6 -46t-29 -39q-21 -20 -35 -28.5t-39 -16.5q-47 -15 -154 -27q-33 -4 -127 -6.5
t-152 -0.5q-45 1 -57.5 2t-16.5 5q-12 11 -2 34q13 31 49 31q19 0 23.5 4t10.5 27q13 52 55 169q41 114 59 183q13 53 21.5 83t8.5 43q0 9 -2.5 11.5t-15.5 7.5q-17 7 -20 7q-5 0 -15 11t-12 18q-2 15 6 26.5t24 16.5zM461 574q-11 6 -21.5 10.5t-17 6t-7.5 -0.5
q-2 -6 -31.5 -109t-29.5 -104t16 4.5t34.5 12.5t24.5 10q42 22 64 55q9 14 11.5 21t2.5 20q2 45 -46 74zM403 307q-18 12 -54 5l-16 -3l-11 -35q-8 -30 -32 -105l-21 -70l9 -11q17 -23 44 -23q10 0 14 2.5t12 11.5q33 40 54 95q17 45 17.5 83.5t-16.5 49.5z" />
    <glyph glyph-name="C" unicode="C" 
d="M539 7q-5 15 1 47q-57 -39 -117 -56q-114 -31 -211 24q-6 4 -9 10q-1 1 -2 1l-1 1q-1 1 -2 1q-1 1 -2.5 1.5t-1.5 1.5q-20 12 -30 20q-17 13 -27 29q-3 5 -4 10q-59 94 -40 211q17 107 93 209q70 93 155 141q52 29 95 32q18 5 39 6q42 1 90 -19q74 -31 117 -88q4 17 8 30
q12 40 25 50q11 9 22.5 8t19.5 -11q7 -4 10 -12t0 -15t-8 -36q-1 -5 -5 -31t-5 -31q-9 -54 -17 -79q-6 -20 -13 -30q-6 -9 -15 -12q-12 -6 -25 0q-9 5 -13 16q-2 5 -3 12q-1 9 0 22q-31 82 -87 105q-53 22 -139 -3h-2q-46 -36 -85 -98.5t-61 -135.5q-30 -99 -16 -176
q14 -74 68 -107q31 -6 63 3q26 9 58 29q21 15 59 45q2 1 4 3l1 1q1 0 1 1q1 1 2 1q33 27 49 39q8 17 17 29q10 16 21 23q19 12 37 3q13 -8 14 -23q1 -6 -2 -14q0 -3 -2 -6v-1q0 -1 -0.5 -1.5t-0.5 -1.5t-1 -1q0 -1 -2 -8t-4 -15t-2 -9q-9 -32 -17 -57q-9 -29 -17 -50
q-12 -29 -22 -41q-4 -5 -9 -8q-7 -5 -16 -6q-5 0 -9 2q-18 -2 -24 15z" />
    <glyph glyph-name="D" unicode="D" 
d="M504 162q46 62 66 145q9 39 14 88q0 1 -1 8q-8 53 -16 84q-10 41 -27 65q-19 27 -47 37q-31 11 -78 3q-3 -14 -9 -32q-14 -44 -41 -118q-2 -8 -5 -16q-4 -10 -18.5 -49t-26.5 -72.5t-14 -38.5q-9 -27 -21 -87q-1 -4 -2 -6q-8 -41 -15 -64l-4 -16q22 -28 53 -32
q31 -5 74 15q53 25 116 83q1 2 2 3zM150 634q5 11 20 19q10 4 26 8q28 7 72 9q94 6 198 -5q119 -14 187 -45q41 -19 60 -44q8 -12 12 -24q21 -21 32 -55q15 -47 10 -115q-4 -59 -21 -117t-39 -88q-3 -6 -9 -8q-8 -11 -21 -24l-12 -12q-7 -7 -11 -10q-77 -78 -193 -108
q-46 -12 -105 -18q-36 -4 -108 -9q-57 -4 -84 -6q-5 -1 -9 1q-123 -15 -156 -3q-16 6 -14 23q-1 5 -1 10q-3 6 -4 14q-4 30 22 50q19 16 47 17q18 5 31 9q5 24 14 53q7 21 20 55q20 54 26 72q10 30 23 91q1 2 3.5 13t2.5 12q3 15 6 26q14 60 27 98q10 30 21 53
q-13 12 -48 15q-15 1 -19 16q-14 11 -6 27z" />
    <glyph glyph-name="E" unicode="E" horiz-adv-x="768" 
d="M561 683q29 4 73 3q36 0 47.5 -4t14.5 -16q3 -8 3 -69q0 -42 -1.5 -54.5t-5.5 -24.5q-14 -34 -40 -34q-21 0 -33.5 12.5t-25.5 45.5q-12 31 -26.5 42t-49.5 16q-25 4 -59 0q-34 -3 -34 -4q-1 -1 -6 -34q-12 -79 -50 -178q-2 -4 0 -5t8 -1q28 0 68 44q32 36 50 46.5
t35 3.5q19 -9 18.5 -37t-21.5 -69q-6 -13 -16 -60q-10 -51 -17 -72t-17 -32q-8 -8 -12.5 -10t-15.5 -2q-16 0 -25 8q-6 5 -7 11t-1 33v37l-11 7q-19 13 -55 18l-13 2l-22 -60q-35 -91 -49 -153q-2 -9 9 -18q17 -14 50.5 -17.5t69.5 4.5q51 11 78.5 27t65.5 55
q34 34 47.5 41.5t28.5 0.5q16 -8 17 -23t-13 -44t-22 -62q-9 -38 -16.5 -51.5t-22.5 -20.5q-40 -16 -371 -2l-150 5q-28 1 -34.5 2t-10.5 6q-6 7 -6 22q0 32 18 46q12 10 17.5 11.5t18.5 -1.5q11 -2 15 -1t15 8q10 7 14 13.5t12 29.5q105 309 121.5 366t7.5 77
q-4 8 -15.5 14t-23.5 6t-17 8t-5 27v1q0 33 12.5 38.5t86.5 6.5h3q72 0 170 5t126 10z" />
    <glyph glyph-name="F" unicode="F" horiz-adv-x="743" 
d="M453 305h-1q0 -2 1 -3v3zM7 68q12 7 35 12q1 0 3 1q19 4 25 8q15 9 28 39q9 22 21 66q0 2 1 8t1.5 11t1.5 7q4 23 7 35q3 11 17 55q18 57 27 86q5 17 9 32q22 75 30 117q5 24 5 37v1l-6 2q-1 1 -4 1l-2 1q-12 4 -19 7q-13 6 -19 14q-12 13 -8 31q3 13 16 26q5 5 11 6
q7 5 15 3q22 -3 84 -2q41 1 128 5h10q104 4 143 5q72 1 86 -7q8 -4 12 -13q2 -3 3 -8q1 -7 2 -17q2 -19 3 -46q2 -65 -3 -80q-3 -11 -10 -17q-11 -10 -25 -7t-27 19q-7 9 -14 23q-6 10 -11 21l-4 8v1l-1 3q-18 39 -79 46q-26 3 -59 0q-12 0 -25 -2q-36 -81 -82 -221
q40 -14 72 -2q26 10 51 38q7 8 18 23q12 15 17 20q12 13 24 16q20 4 33 -15q5 -7 4 -15q0 -5 -1 -9q-2 -5 -6 -11q-1 -3 -2 -5q-1 -1 -2 -3q-1 0 -1 -1l-1 -1q0 -1 -1 -2v-1q-16 -28 -29 -73q-8 -28 -18 -70q0 -2 -3 -14.5t-3 -15.5v-1q-1 -1 -1 -2q0 -2 -5 -19
q-3 -11 -12 -15q-5 -7 -13 -9q-16 -5 -28 6q-8 7 -11 20q-3 10 -3 35q0 10 -1 14q-1 27 -6 34q-8 10 -50 10h-8q-18 0 -27 1q-4 0 -8 1q-44 -146 -48 -205q-1 -19 10 -30q44 -12 64 -24q8 -4 10 -13t-2.5 -16.5t-12.5 -10.5q-2 -7 -7 -14q-4 -5 -10 -8l-6 -2q-42 -9 -114 -4
q-17 1 -46 4q-41 4 -54 5h-1h-2q-2 -1 -7 -1q-4 -1 -10 -2q-1 0 -5.5 -1t-5.5 -1q-5 -1 -9 -1q-20 -3 -32 -4q-9 0 -15 1q-13 2 -19 10q-10 11 -7 26q1 7 6 15l2 4q3 5 3 6q2 2 3 4q3 7 10 11z" />
    <glyph glyph-name="G" unicode="G" horiz-adv-x="849" 
d="M594 74q-1 0 -2 -1q2 -1 3 -1q-1 1 -1 2zM690 254q1 0 1 -1q0 1 1 1h-2zM630 101h-2l2 -2l2 2h-2zM666 477q-1 2 -3 4q0 1 -1 3t-1 3q-18 38 -29 57q-16 27 -33 42q-38 36 -102 19q-87 -24 -148 -125q-57 -94 -70 -212q-13 -114 21 -177q33 -60 103 -35q26 9 51 31
q16 14 44 46q1 0 1 1q19 21 29 32q1 26 -4 40q-5 12 -16 14h-1h-1h-2q-3 -1 -5 -1q-8 0 -13 1q-6 1 -10 4q-9 5 -11 15q-1 5 0 11q0 3 1 7q1 5 3 13q1 1 1.5 2.5t1.5 5.5l1 5q1 1 1 3q2 9 9 14.5t16 4.5q7 -1 13 -6q8 0 35 1q35 0 82 -1q48 0 82 -1q42 -2 49 -5q8 -4 12 -13
q2 -4 3 -10q1 -18 -11 -33q-6 -9 -20 -19q-2 -1 -7 -5l-5 -4q-6 -4 -9 -7q-28 -99 -51 -206q-2 -9 -9.5 -14t-16.5 -3t-14 10q-8 5 -19 15q-1 1 -2 3l-1 1q-1 0 -1 1q-2 2 -4 3q-2 2 -3 5q-2 1 -5 2q-15 8 -37 23q-91 -57 -198 -55q-102 3 -182 58q-70 48 -95 118
q-22 45 -19 101q0 9 8 16q23 124 101 226q97 128 238 169q15 5 20 6q16 5 28 7q11 2 21 3q19 6 40 4q35 -3 75 -26q30 -18 63 -47q16 -13 33 -30q8 30 19 65q2 8 9 12t15 3q14 9 27 1q10 -5 14 -18q2 -7 2 -16q1 -29 -10 -82q-12 -53 -27 -90q-10 -22 -19 -34q-7 -8 -15 -12
q-11 -7 -24 -3q-6 1 -11 5q-7 5 -10 14q-2 6 -1 12q1 2 1 3v2q1 1 1 2q1 9 3 19q-1 1 -1 2z" />
    <glyph glyph-name="H" unicode="H" horiz-adv-x="981" 
d="M615 678q6 3 43 1q49 -2 122 -4q86 -4 97 -5q27 -5 33 -22q5 -14 -4.5 -25.5t-41.5 -30.5l-27 -16l-26 -75q-22 -66 -55 -156q-68 -185 -73 -240q-2 -15 0.5 -19.5t13.5 -4.5q7 0 28 -7q20 -7 25 -16q10 -16 5 -35t-20 -27q-10 -5 -50 -3.5t-89 -2.5q-47 -3 -99 -3
q-65 1 -74 2t-14 8q-11 15 -3 46q4 14 9.5 18.5t22.5 7.5q48 7 70.5 40t46.5 132q14 55 14 58q0 2 -124 2h-124l-16 -51q-14 -40 -26.5 -90t-12.5 -62q0 -19 38 -26q19 -3 25.5 -9.5t6.5 -19.5t-8 -31t-16 -23q-9 -6 -91 -10q-93 -5 -149 -5q-48 -1 -59 0t-18 6
q-16 12 -4 45q6 16 13.5 23t20.5 9q14 2 34 11.5t20 15t23 74.5q39 113 74 225q19 61 39 124l21 62l-8 8q-8 8 -29 10q-29 3 -36 16.5t6 41.5q10 20 18 26q7 4 39.5 4.5t168.5 -1.5q74 -1 87.5 -2t18.5 -6q8 -8 7 -18.5t-9 -19.5q-10 -11 -46 -32q-37 -23 -43 -28
q-6 -6 -17 -41q-46 -147 -46 -153q0 -1 100 -1q97 0 121 -2l22 -3l10 25q14 34 28 93t13 75q-1 6 -4.5 8.5t-18.5 7.5q-22 7 -26 12q-4 6 -4 25.5t5 32.5q7 21 22 31z" />
    <glyph glyph-name="I" unicode="I" horiz-adv-x="553" 
d="M483 633l-2 -8q0 -1 -1 -1q2 -3 2 -6q1 -9 -4.5 -16.5t-14.5 -8.5q-39 -6 -63 -28q-3 -7 -7 -15q-8 -28 -24 -72q-7 -21 -19 -56q-1 -2 -3.5 -9t-4.5 -13t-2 -7q-6 -17 -10 -29q-5 -14 -9 -25q-46 -133 -61 -196q-2 -21 -1 -37q0 -12 19 -34q0 -1 2 -2q17 -6 29 -16
q6 -6 9 -11q5 -11 3 -21q-3 -11 -13 -18q-7 -4 -17 -6q-45 -11 -176 -5q-54 -8 -91 -9q-5 -3 -11 -3q-9 0 -15.5 6t-7.5 15q-2 41 39 56q2 3 5 5q42 37 80 119q30 67 59 172q13 45 34 127l24 96q-18 13 -49 16h-1q-4 -1 -7 0q-9 2 -14 10t-3 17q2 5 2 8q3 10 7 17l2 4
q1 16 16 20q32 10 76 9q25 -1 76 -6h1q39 -5 59 -6q30 -2 53 2q12 1 20 -8q8 -3 12 -11t2 -16z" />
    <glyph glyph-name="J" unicode="J" horiz-adv-x="648" 
d="M547 683q3 3 11 0.5t13 -7.5q7 -6 7.5 -12t-4.5 -23q-5 -18 -5 -24q0 -7 -7.5 -12t-19.5 -6q-14 0 -32 -5l-16 -5l-20 -53q-20 -57 -44 -114q-24 -62 -38 -117q-62 -254 -162 -427q-17 -29 -22 -35.5t-19 -18.5q-35 -29 -97 -48.5t-123 -20.5q-56 0 -88 15.5t-51 52.5
q-18 36 -14 65q3 26 16.5 38t42.5 13q25 2 40.5 -7t55.5 -49q38 -39 49 -45t23 6q9 10 18 34q9 22 13 24q17 6 55 118q41 122 57 147q4 6 16 58q19 88 68 244q35 112 30 115q-4 3 -25 1q-14 -1 -18.5 0t-9 5.5t-5.5 9.5t0 20q1 18 7.5 34.5t15.5 22.5q7 5 31 -1
q66 -13 159 -8q29 2 59 6.5t33 8.5z" />
    <glyph glyph-name="K" unicode="K" horiz-adv-x="960" 
d="M357 678q29 2 70.5 2.5t51.5 -2.5q16 -5 21 -15t1 -30q-4 -19 -11.5 -28.5t-22.5 -14.5q-38 -13 -57 -32q-10 -10 -25 -54q-15 -39 -28 -76t-20 -59t-6 -22q2 1 51 37q106 80 198 142q39 28 46 40q6 12 6 15q0 4 -16 6.5t-32 1.5q-21 -2 -27 4q-7 7 -7 16q0 14 12 35
t22 25q9 4 140 4q132 1 141 3t18 -4q6 -6 7 -10t-1 -23q-1 -25 -6 -35q-4 -10 -12.5 -12.5t-17.5 2.5q-5 4 -11.5 3.5t-27.5 -7.5l-40 -12q-26 -10 -120 -82t-112 -96l-14 -19l4 -17q16 -67 45 -130q58 -130 140 -167q23 -10 30 -22q14 -23 -5 -40q-8 -8 -14.5 -9.5
t-32.5 -3.5q-32 -2 -98 -7q-126 -10 -184 -2q-23 2 -31 13.5t3 25.5q5 7 8 22q2 15 7 21t36 19q18 8 24 12t5 7q-2 3 -8 22q-8 21 -35 70q-16 30 -25 46t-15.5 26.5t-9 13t-4.5 1.5q-4 -3 -40 -34l-37 -30l-4 -21q-15 -64 -15 -96q0 -14 5 -18.5t31 -14.5q47 -17 20 -58
l-10 -15l-55 -2q-239 -8 -257 -5q-24 5 -24 30q0 22 12 39t25 14q5 -2 30 2q18 2 22.5 4.5t12.5 11.5q26 35 79.5 210.5t57.5 244.5q2 19 1 24t-6 9q-7 7 -24.5 11t-26.5 12q-9 10 -7 22q1 9 7.5 25t12.5 22q5 5 17.5 5.5t60.5 -4.5q35 -4 44.5 -4t17.5 3q11 6 39 9z" />
    <glyph glyph-name="L" unicode="L" horiz-adv-x="719" 
d="M179 681q50 9 182 -4q78 -8 106 -9q31 -1 39.5 -10t-0.5 -32q-6 -19 -14 -25.5t-22 -6.5q-16 0 -31 -10q-14 -10 -21.5 -25t-14.5 -50q-12 -53 -63 -172q-35 -79 -46.5 -115t-17.5 -83q-7 -59 -3 -63q8 -8 77 -14q30 -3 68.5 -1t45.5 7q5 3 27 29q36 40 70.5 63.5
t59.5 24.5q17 0 23.5 -5.5t5.5 -18.5q-1 -9 -23.5 -71t-30.5 -79q-5 -11 -14 -14t-56 -7q-50 -3 -79 -6q-36 -3 -88 -2.5t-74 4.5q-26 5 -118 2q-171 -7 -181 2q-16 13 -10 28q4 8 4 23q1 16 9 23.5t31 12.5q26 5 44 19q19 14 21 22q17 59 50 140q27 66 37 97.5t30 110.5
q16 61 17.5 73t-2.5 21q-8 18 -23 23q-40 12 -40 60q0 20 5 28t20 10z" />
    <glyph glyph-name="M" unicode="M" horiz-adv-x="1087" 
d="M194 681q37 8 146 -2q55 -5 64.5 -7t14.5 -10q6 -9 7 -69q2 -60 14 -157q11 -96 13 -161l2 -63l30 44q28 43 75 106q43 57 78 111q37 56 69 99q37 49 48 70q1 3 4 8q7 14 11.5 18t22.5 6.5t52 -0.5h24q76 -2 104 -2q24 0 36.5 -16t6.5 -38q-9 -30 -60 -38
q-8 -2 -10.5 -5.5t-9.5 -25.5q-10 -36 -38 -122q-49 -157 -67 -224t-19 -96q0 -19 1 -24t7 -9q7 -6 29 -9q21 -3 29 -6q13 -5 16.5 -23t-6.5 -28q-11 -12 -29 -15.5t-69 -3.5q-144 1 -184.5 2.5t-52.5 7.5q-18 8 -22.5 22t5.5 29q5 8 10.5 10.5t24.5 5.5q48 9 74 35
q9 9 13.5 18.5t14.5 41.5q23 73 44 157q9 41 27.5 130.5t17.5 90.5t-12 -12.5t-26 -33t-27 -35.5q-86 -120 -148 -235q-16 -28 -23 -40q-11 -16 -41 -72q-65 -121 -77 -129q-8 -5 -16 -3q-8 3 -36 2h-27l-11 11q-11 11 -11 14q0 2 -11 115q-22 222 -26 329q-2 59 -4 59
t-32 -65t-47 -107q-39 -95 -55 -166.5t-5 -100.5q2 -5 14 -5q13 0 29.5 -3.5t19.5 -6.5q5 -4 6 -17q2 -9 0 -13t-12 -15q-10 -10 -15 -12.5t-19 -3.5q-8 0 -79 -6q-66 -4 -90 -4q-21 0 -27 1.5t-11 6.5q-7 7 -7.5 13.5t5.5 25.5q9 25 13 30.5t18 10.5q14 4 21.5 10t22.5 26
q65 81 156 353q35 103 34 106q-2 3 -16 11q-15 7 -33 5q-13 -2 -17 -1t-10 6q-8 8 -8 14q0 7 7.5 24.5t13.5 25.5t22.5 17t28.5 12z" />
    <glyph glyph-name="N" unicode="N" horiz-adv-x="931" 
d="M624 674q36 11 103 9q48 -1 100 -8q11 8 22 2q8 -4 11 -12.5t0 -16.5q-2 -3 -3 -8q-1 -1 -3 -7q-5 -12 -8 -18v-3q1 -9 -5 -16t-16 -7q-29 -2 -52 -27q-22 -24 -28 -59q-1 -6 -5 -11q-13 -44 -35 -115q-2 -8 -8 -26q-41 -135 -61 -203q-2 -6 -3 -13q-10 -39 -28 -94
l-8 -24l-1 -5l-4 -10q-2 -5 -2 -7q-2 -5 -5 -8q-5 -12 -17 -13q-23 -4 -42 -3q-13 1 -19 14q-4 4 -6 10v4q-23 35 -62 118q-21 45 -78 170q-3 7 -5 12q-56 123 -85 180q-3 -11 -8 -23q-7 -19 -18 -46q-2 -5 -10.5 -25.5t-9.5 -23.5q-13 -33 -21 -55q-39 -104 -38 -161
q1 -66 59 -85q8 -3 12.5 -10.5t2.5 -15.5q1 -13 -9 -23q-8 -9 -28 -14q-25 -7 -75 -10q-91 -6 -138 -2q-8 1 -13.5 6.5t-6.5 12.5q-1 5 0 10q1 9 3 16q2 5 7 16q4 10 14 13q5 6 14 7q30 4 44.5 14t19.5 31q2 9 11 14q12 60 33 132q21 71 62 188q1 1 4.5 11t7.5 22t8.5 24.5
t6.5 18.5q9 26 17 47q-11 15 -17 20q-7 5 -29 2q-3 -1 -11 -2q-19 -4 -28 -4.5t-16 5.5t-7 15t5 15q3 22 9 33q2 6 6 10q9 10 22 7q115 9 186 -4q8 -1 13 -7.5t5 -13.5v-2q45 -63 122 -223q42 -89 91 -201q9 29 23 70q4 10 12 32q33 90 44 136q17 72 13 131q-4 7 -9 9
q-10 3 -28 -5q-7 -3 -15 -1h-4q-9 2 -14.5 9t-4.5 16q4 24 18 45q1 3 3 4q5 7 13 10z" />
    <glyph glyph-name="O" unicode="O" horiz-adv-x="869" 
d="M593 42q-43 -36 -92 -52q-4 -2 -8 -1q-20 -7 -37 -8q-4 -3 -8 -4q-63 -17 -131.5 3.5t-125.5 71.5q-58 52 -84.5 118t-14.5 130l2 6q0 5 1 10q11 91 74 177q60 81 149 134.5t179 60.5q8 1 15 -4q15 0 32 -2t42 -9l6 -2h1h1l2 -1h1q102 -27 154 -101q48 -65 48 -158
q1 -83 -35.5 -168.5t-98.5 -147.5l-1 -1q-2 -2 -4 -4.5t-5 -5t-5 -5t-4 -3.5q-20 -20 -36 -28q-9 -4 -17 -6zM319 65q94 -40 155 11q27 22 52 64q18 29 45 85q0 1 2 5t4.5 9.5t4.5 8.5q-3 7 -1 14q9 29 23 68q2 18 5 42q2 9 4 27q10 71 12 105q-12 53 -36 81q-28 33 -72 25
q-10 -1 -18 6q-47 -15 -92.5 -56t-75.5 -97q-28 -53 -49 -118q-8 -27 -16 -58q-17 -142 43 -220q5 0 10 -2z" />
    <glyph glyph-name="P" unicode="P" horiz-adv-x="782" 
d="M326 358q77 -13 135 24q55 35 72 96q15 58 -14 94q-32 40 -105 33q-7 -23 -26 -74q-1 -2 -10 -27.5t-12 -32.5q-14 -38 -24 -66q-9 -25 -16 -47zM664 466q0 2 1 4h-1v-4zM132 613q7 15 17 31q2 4 5 9q1 1 3.5 4.5t2.5 4.5q9 13 24 9q35 6 91 1q10 -1 29 -3q34 -3 49 -4
t57 -1q59 0 90 -2q102 -6 152 -38q52 -33 56 -95q17 -68 -31 -124q-39 -47 -119 -78q-62 -24 -133.5 -34t-120.5 -2q-26 -82 -35 -137q-7 -39 -6 -65q1 -11 3 -19q5 -4 11 -7q1 0 3 -1q3 -1 11 -2h3q3 -1 4 -1q4 0 7 -1q4 -1 7 -1.5t5 -2.5q2 -1 5 -3q4 -3 6 -9
q5 -13 -2 -26q-3 -5 -9 -12q-3 -3 -3 -4q-7 -10 -19 -10q-44 -10 -144 -11q-93 -2 -149 4q-17 1 -20 17q-4 7 -3 15q2 12 7 33q1 2 1 3q3 9 10.5 13.5t16.5 1.5h2q2 0 4 -1q12 -1 22 -1q14 11 27 23q12 65 43 153q12 35 36 96l35 91q14 39 24 70q2 11 4 20q9 45 0 63
q-3 7 -10 9q-12 4 -34 -1q-10 -9 -23 -4q-8 4 -11.5 12t-0.5 17z" />
    <glyph glyph-name="Q" unicode="Q" horiz-adv-x="996" 
d="M536 619h-3q-54 0 -95 -21q-64 -79 -99 -136q-51 -85 -67 -163q-13 -67 2 -130t51 -96q35 -32 78 -24q53 9 109 74q18 22 34 53q11 23 26 61q2 4 4 10q0 1 2 5t2 5q8 20 13 32q48 118 33 207q-12 73 -63 109q-12 9 -27 14zM864 -66q19 6 31 7q9 0 16 -3q13 -6 15 -20
q1 -8 -3 -17q-2 -4 -6 -10q-6 -8 -17 -19l-6 -6q-33 -53 -110 -87q-45 -19 -90 -25.5t-80 2.5q-31 8 -63 24q-22 10 -54 29q-3 1 -6 4q-3 1 -7 3q-7 5 -12 8q-45 25 -75 34q-42 13 -90 7q-4 0 -9 1q-1 -2 -2 -3q-18 -19 -47 -48q0 -1 -4.5 -5.5t-6.5 -5.5q-17 -18 -31 -22
q-4 -1 -7 -1q-12 -2 -21 2q-15 7 -16 22q-2 14 10 34q16 26 55 69q32 34 67 68q9 8 16 15q-2 0 -5 1q-8 3 -18 8q-1 0 -10 4l-11 6q-128 54 -165 164q-32 97 13 211q41 105 130 185t190 103q13 3 28 5q24 3 67 0q60 -4 111 -33t85.5 -73t53.5 -100.5t19.5 -113t-21 -113.5
t-64.5 -99q-46 -47 -115 -89.5t-132 -62.5q-13 -5 -32 -6q-26 -17 -55 -41q20 2 42 1q51 -2 127 -23q17 -4 46 -12q55 -16 80 -22q42 -10 73 -12q23 -1 43 2q14 14 25 23q19 18 38 28q5 2 10 2z" />
    <glyph glyph-name="R" unicode="R" horiz-adv-x="823" 
d="M590 518q-14 46 -60 69q-53 25 -126 14v-3q1 -24 -10 -67q-14 -53 -56 -170q101 -3 161 20q79 31 90 114q2 13 1 23zM174 675h54q129 3 210 -3q134 -10 210 -41q48 -19 74 -48q31 -35 31 -80v-12q1 -33 -3 -49q-7 -31 -30 -50q-71 -61 -177 -88q11 -9 20 -23
q12 -18 24 -46q7 -17 19 -51q0 -1 1 -3l1 -2q18 -51 29 -72q15 -28 31 -35q5 -2 16 -2q7 -1 11 -2q10 -3 16 -11q6 -7 6 -18q1 -7 -1 -17q-1 -9 -8 -14.5t-16 -4.5q-3 1 -5 2q-15 0 -52 -9q-9 -2 -14 -3q-26 -6 -43 -7q-26 -1 -45 6q-42 16 -67 68q-9 19 -18 47
q-5 16 -13 48l-1 1q-11 43 -18 62q-11 31 -24 48q-27 37 -79 26q-25 -68 -36 -104q-22 -68 -20 -86v-1l1 -1q1 -3 5 -6q5 -6 13 -13q45 -8 56 -14q15 -10 12 -28q-1 -7 -5 -16q-2 -2 -3 -5q-3 -4 -3 -5q-3 -8 -9 -12q-5 -10 -16 -11q-62 -9 -173 -5h-19q-86 3 -126 1
q-10 0 -16.5 6t-6.5 15q-1 15 13 22q1 2 3 8q3 6 4 9t2 5q4 8 12.5 11t17.5 -1l2 -2q33 1 44 14q13 14 41 91q27 73 55 171t43 169q7 36 9 59q2 11 1 17q0 1 1 3h-1l-3 3q-7 2 -17 4t-24 2q-8 -5 -17 -3t-14 10t-2 17q3 13 10 26l2 3l2 3q1 2 1 3v2q0 9 6.5 15.5t15.5 6.5z
" />
    <glyph glyph-name="S" unicode="S" horiz-adv-x="669" 
d="M120 224q3 -9 7 -23q0 -2 1 -6q8 -32 13 -46q31 -45 67 -67q50 -31 92 -12q40 18 55 72q-3 3 -5 7q-13 36 -55 88q-19 24 -48 55q0 1 -17.5 19.5t-35.5 38.5t-24 27q-40 46 -43 68q-8 61 12 110q15 37 45 62q9 12 22 22q43 33 110 37q54 4 106 -11.5t86 -45.5q5 26 14 49
q3 8 10.5 12t15.5 2l10 2q5 0 15 -1h4q16 -1 20 -16q4 -6 3 -13q-4 -25 -13 -74v-4q-13 -73 -17 -112q-1 -9 -8 -14.5t-16 -4.5q-4 0 -8 2q-2 -1 -4 -1q-4 0 -10 1q-1 0 -4.5 0.5t-4.5 0.5q-9 0 -14.5 7t-4.5 17q0 4 2 7v3v38q-15 32 -48 63q-39 37 -71 41q-24 3 -51.5 -5
t-42.5 -22q-30 -30 -2 -81q13 -24 40 -59q11 -13 26 -31l29 -34q35 -40 54 -65q28 -37 43 -69q33 -66 18 -121q-18 -64 -99 -114q-91 -56 -184 -22q-24 9 -55 26q-9 4 -45 24q-13 -22 -15 -44q-1 -9 -7 -15q-6 -13 -21 -13h-1q-10 0 -18 4q-12 -1 -20 8q-9 9 -9 30
q0 14 4 38q17 98 14 161q-1 19 17 23q7 7 18 5q4 0 12 -1h2h1q7 -1 12 -2q12 -1 17 -13q3 -4 4 -8z" />
    <glyph glyph-name="T" unicode="T" horiz-adv-x="852" 
d="M400 628v-1l1 1h-1zM164 677q77 3 219.5 0t253.5 -9q45 0 84 3q15 1 22 1q6 -1 10 -2q9 3 17 -1t11 -12.5t-1 -16.5q-5 -11 -13 -44q0 -1 -1.5 -7t-3 -13t-2.5 -10q-11 -48 -23 -71q-10 -18 -22 -28q-17 -12 -38 -10q-9 1 -14.5 8t-5.5 16q1 2 1 4t1 4q11 40 4 65
q-6 19 -25 30q-34 19 -102 10q-3 -14 -7 -28q-15 -73 -42 -159q-22 -74 -71 -212q-28 -79 -38 -108q6 -2 15 -4q2 0 4 -1h2l2 -1q16 -3 24 -6q14 -4 23 -11q14 -12 14 -30q0 -14 -11 -32q-6 -8 -16 -11q-6 -1 -13 1q-4 0 -8 2q-73 -5 -167 -3q-31 0 -55 1q-5 -1 -11 -2h-3
q-16 -4 -26 -5q-15 -2 -26 0q-19 4 -28 17.5t-5 34.5q2 9 10 14q1 2 2 3q8 6 23 10q8 1 23 3q2 0 5 1h4q5 1 8 1q16 3 25 5h2q21 82 72 242q0 2 2 6q32 102 47 153q20 68 33 124q-54 4 -96 -12q-34 -13 -58 -39q-15 -23 -31 -58v-1q-1 0 -1 -1v-1l-1 -1q0 -1 -1 -2
q-3 -8 -6 -12t-7 -7q-3 -3 -7 -5q-19 -6 -32 -4q-19 4 -24 23q-3 10 -1 24q2 9 6 21q1 4 3 10q7 19 7 20v2q2 9 11 15q0 2 1 4l4 12q1 3 4 13t4 11q4 13 6 21q3 10 4 16q1 3 1 4v1q0 9 6 16t15 7h3q2 1 5 1z" />
    <glyph glyph-name="U" unicode="U" horiz-adv-x="911" 
d="M351 631v-2l2 2h-2zM380 525q-49 -113 -77 -202q-18 -60 -28 -113q0 -36 9 -65q14 -43 48 -63q40 -24 105 -14h1q18 6 28 11q16 8 28 19q26 24 58 99q26 62 55 159q17 55 38 135q2 7 14 50q-12 22 -14 26q-7 10 -14 13q-11 5 -38 8q-10 1 -16 10q-10 11 -4 24
q13 27 32 39q0 9 5.5 15t14.5 7q18 2 105 -1q38 -1 62 -2q14 -1 21 -2q5 0 8 -1q11 -2 17 -10q3 -6 3 -12q0 -3 -0.5 -5.5t-1.5 -6.5t-4 -11q-1 -1 -1 -2l-5 -12q-5 -10 -15 -13q-6 -4 -14 -10q-2 -1 -3 -2q-6 -4 -13 -9q-1 0 -3 -1q0 -1 -2 -1l-2 -2q-23 -15 -39 -51
q-2 -6 -4 -13q-6 -18 -19 -51q-4 -11 -6 -18q-21 -99 -62 -206q-9 -23 -18 -44q-30 -86 -50 -110q-5 -6 -13 -7q-2 -2 -3 -4q-26 -33 -51 -47q-7 -4 -15 -2l-4 -2q-3 -3 -6 -5q-13 -6 -26 -11q-55 -23 -114 -30q-85 -10 -146 17q-73 31 -91 105q-14 56 10 151q8 35 22 81
l2 10q9 38 21 85q7 28 23 88q6 26 10 39q-26 20 -58 31q-17 6 -15 24q0 3 1 7q8 36 28 47q6 10 18 10h6q7 0 16.5 0.5t14.5 0.5q61 1 110 0q83 -1 121 -6q31 -5 40 -16q16 -17 1 -35q-6 -7 -19 -13q-7 -3 -15 -2h-4q-2 0 -3 1h-1q-8 0 -22 -7l-1 -1q-1 0 -1 -1q-3 -1 -5 -2
q-15 -30 -28 -57q1 -5 -2 -11z" />
    <glyph glyph-name="V" unicode="V" horiz-adv-x="878" 
d="M505 672q6 6 21 5q41 -6 115.5 -6t126.5 6q29 3 36 -4.5t3 -34.5q-4 -24 -5 -29q-4 -13 -35 -11q-28 1 -77 -40q-19 -16 -44.5 -49.5t-132.5 -184.5q-108 -153 -134 -191.5t-47 -78.5q-29 -57 -38 -62t-13 -10q-5 -7 -15.5 -9t-46.5 -4l-46 -1l-8 8q-9 8 -8 20
q1 11 -1 16q-10 28 -10 160q0 144 18 272q6 43 6.5 82t-4.5 45q-5 4 -24 6q-16 2 -22.5 5t-9.5 11q-3 6 1.5 26t11.5 35q6 12 11 15t23.5 4.5t54.5 -1.5q136 -7 200 -3q25 2 31 1.5t11 -5.5q6 -6 6 -30q0 -28 -9.5 -40t-29.5 -10q-28 5 -45 -4h-1q-15 -8 -18 -19t-6 -70
q0 -4 -1 -6q-8 -182 -15 -263q-2 -28 -2 -29l4 6q4 5 11 14.5t15 20.5q18 25 83 115q89 121 115 160.5t26.5 50.5t-16 20.5t-31.5 7.5q-28 -5 -37 3q-4 4 -5 10t0 29q1 33 7 41z" />
    <glyph glyph-name="W" unicode="W" horiz-adv-x="1086" 
d="M811 679q6 2 39 0q8 0 38 -1t45 -2q44 -2 57.5 -5t20 -13t6 -31.5t-6.5 -32.5q-12 -20 -47 -15l-14 2l-22 -40q-44 -82 -130 -216t-141 -208q-32 -43 -57 -93.5t-33 -55.5q-7 -5 -33 -7.5t-46 -0.5q-3 1 -7 1q-18 2 -21 20t-1 125v40q1 168 6 207q4 36 3.5 36.5
t-27 -40.5t-74.5 -117q-157 -247 -173 -258q-8 -7 -40 -7t-47 7t-19 14q-4 8 -3 81t7 145q6 82 2.5 147t-1.5 144q0 4 1 11q1 54 -1 62.5t-15 8.5h-3q-14 0 -19.5 10.5t-0.5 26.5q5 15 13 28.5t14 16.5q11 6 197 2q59 -1 70 -2t15 -6q12 -15 0 -38t-34 -27q-13 -2 -20 -8.5
t-19 -26.5l-15 -24l-4 -58q-4 -45 -8 -149.5t-2 -105.5l6 8l15 20q34 49 90 125q86 117 116.5 162t45.5 74q3 6 7.5 14.5t7.5 14.5t5 9q5 11 10 15q4 4 32 5q48 4 58 -15q14 -30 -14 -388q-5 -56 -7 -67q-1 -6 1 -5q1 1 11 17q114 204 177 289l26 35l-2 19q-1 15 -7 31.5
t-10 16.5q-5 0 -14.5 10t-14.5 19q-17 36 11 44z" />
    <glyph glyph-name="X" unicode="X" horiz-adv-x="873" 
d="M158 674q5 4 29 4.5t133 0.5q112 0 134.5 -0.5t25.5 -4.5q11 -15 -2.5 -38t-41.5 -40q-13 -7 -16 -12q-1 -5 -3 -33q-1 -20 0.5 -29t11.5 -35q13 -37 15 -37t29 20t41 33q16 15 34 36.5t22 33.5q6 13 0 15.5t-37 3.5q-26 0 -26 24q0 37 44 52q18 7 53 7q34 0 48 -3
q12 -3 47 0q11 1 34 2.5t29 1.5l29 2l6 -12q6 -12 6.5 -19.5t-4.5 -23.5t-12 -21t-25 -5q-13 0 -19 -3t-26 -18q-55 -42 -134 -117q-45 -43 -77 -74l-32 -28l17 -45q39 -105 77 -184l21 -43l26 -7q38 -10 46.5 -23t-4.5 -40q-9 -17 -18.5 -21t-46.5 -5q-118 -4 -205 -9
q-57 -2 -68 -0.5t-16 13.5q-3 7 1 23t12 26q13 17 55 32q33 12 33 23q0 4 -31 68q-32 67 -33 72q-2 7 -5 7t-43.5 -32.5t-61.5 -51.5q-23 -19 -26 -33q-6 -26 -1 -42.5t19 -16.5q24 0 31 -20.5t-11 -38.5q-12 -13 -30 -16.5t-72 -3.5q-67 1 -75 2q-13 0 -50 -2
q-60 -3 -74 11q-6 7 -6 18t5 19q4 6 12 10.5t36 14.5q20 7 31 14.5t36 28.5q43 36 99 89q85 81 122 108q24 18 23 24q-3 11 -28 77q-27 70 -42 117q-13 41 -20.5 49.5t-28.5 6.5q-33 -4 -39 17q-3 12 -2.5 18.5t5.5 20.5q6 16 6 26t8 16z" />
    <glyph glyph-name="Y" unicode="Y" horiz-adv-x="842" 
d="M140 673q9 2 108.5 1t136.5 -4q49 -3 60.5 -9.5t11.5 -30.5q0 -10 -6 -23t-13 -17q-6 -3 -27 -1q-19 2 -26 -2t-10 -18q-8 -38 39 -162q16 -36 19 -36q4 6 52 80q55 85 63.5 103t-2.5 29q-8 7 -21 7q-29 0 -28 22v10v10q1 19 8.5 25.5t35.5 10.5q23 5 120 2
q70 -1 84.5 -2t19.5 -6q10 -9 7.5 -25t-15.5 -27q-6 -5 -37 -20q-23 -11 -31.5 -18t-30.5 -33q-29 -33 -99 -127t-87 -114q-18 -22 -35 -65q-28 -69 -35 -97.5t0 -46.5q3 -7 6 -9t12 -4q72 -11 62 -62q-5 -21 -15.5 -29t-24.5 -1q-5 3 -99 8q-138 8 -188 -4q-30 -6 -39 -6.5
t-16 5.5q-4 5 -5 10t0 25q2 28 6 38q6 13 15 16.5t44 3.5l44 2l7 11q13 20 63 185l5 17l-18 66q-37 136 -57 193q-10 27 -18.5 32.5t-37.5 5.5q-21 0 -26 1t-11 8q-7 9 -7 17t9 25q13 26 27 30z" />
    <glyph glyph-name="Z" unicode="Z" horiz-adv-x="780" 
d="M513 688q35 2 88.5 1.5t60.5 -2.5q11 -4 16 -10q6 -8 14 -9q18 -5 19 -34q0 -15 -8.5 -27.5t-34.5 -36.5q-28 -25 -139.5 -154t-179.5 -215q-22 -27 -43.5 -55.5t-34.5 -47.5t-11 -20q2 0 52 4q46 5 107 9q58 3 70 6q11 3 45 39q53 57 62 65t17 8q25 0 25 -28
q0 -22 -20.5 -80t-32.5 -74q-12 -15 -25 -19.5t-44 -4.5q-159 -2 -366 -11l-100 -4l-17 9q-16 7 -26 20t-10 26q0 10 15 23q16 15 64 76q108 133 216 247q60 63 77 84q56 70 93 109l18 17l-10 3q-10 2 -65 2q-56 0 -79 -6q-75 -18 -113 -70q-16 -22 -16 -24q0 -3 -10 -22.5
t-14 -21.5q-9 -7 -30 -2t-31 16q-15 17 -11 48.5t30 97.5q12 30 15 41q3 9 14 15q9 5 15 5t32 -5q74 -12 214 3q74 8 92 9z" />
    <glyph glyph-name="bracketleft" unicode="[" horiz-adv-x="577" 
d="M269 581q-1 1 -2 1q-3 -9 -6 -20q4 11 6 16q1 2 2 3zM244 -200q-1 -4 -1 -7q-1 -7 -2 -11q-3 -11 -10 -17q-5 -5 -13 -6q-5 -1 -10 -1q-7 0 -17 1q-4 0 -9 1q-2 0 -5 1h-4q-3 1 -4 1q-27 3 -82 -1q-54 -3 -82 -1q-8 0 -14 6q-3 0 -5 2q-9 4 -12 12.5t1 16.5
q59 131 114 297q37 115 91 307q7 27 18 82q1 2 2 7q1 4 1 6q2 8 3 14q10 47 18 77q10 33 22 59q-2 4 -3 8q0 9 5.5 16t14.5 8q85 7 210 7h1h5h5q3 0 5 -1q7 -2 11 -7q12 -13 9 -29q-2 -13 -11 -23q-19 -19 -41 -16q-36 5 -63 -7q-3 -8 -8 -18q-14 -30 -33 -81
q-38 -98 -85 -238q-111 -327 -115 -384q-2 -24 6 -38q29 -10 65 -8q9 0 15.5 -6t7.5 -15v-3q0 -4 -1 -8v-3z" />
    <glyph glyph-name="backslash" unicode="\" horiz-adv-x="565" 
d="M249 690l-8 40q6 -27 9 -40q2 1 5 1q21 3 47 -6q27 -9 46.5 -25.5t23.5 -35.5q13 -62 32 -188v-3q14 -92 23 -140q8 -42 28 -117q1 -4 3 -10q14 -55 21 -83q11 -47 16 -86q1 -9 -4.5 -16.5t-14.5 -8.5q-10 -1 -18 6q-4 0 -18 -1q-11 -1 -17 -1q-36 -2 -54 5q-8 4 -13 12
q-3 4 -5 9q-22 59 -35 141q-6 36 -11 80q-1 3 -1 5q-23 83 -49 219q-3 15 -10 52q-18 96 -28 144q-3 4 -6 9q-5 7 -3 16t10 14t18 2q6 4 13 6z" />
    <glyph glyph-name="bracketright" unicode="]" horiz-adv-x="469" 
d="M343 630q4 0 7 -1l1 1h-8zM303 544q-1 0 -1 1v-3q0 1 1 2zM130 629q4 10 6 17q10 23 29 28q8 2 18 2h9q1 -1 3 -1h4h2h5q81 -5 160 0h1l1 1h2q7 1 12 -1q8 -3 12 -10l4 -8q0 -2 1 -3q2 -13 -4 -31q-4 -11 -12 -27l-6 -12l-8 -14q-8 -14 -9 -17q-1 -2 -1 -4q-1 0 -1 -1
q-1 -6 -4.5 -18.5t-6 -22.5t-2.5 -11q-23 -86 -76 -257q-46 -148 -66 -223q-35 -124 -53 -226q-2 -9 -9 -14t-16 -4q-12 -7 -34 -12q-10 -2 -22 -4q-4 0 -8 -1h-3h-2l-1 -1q-85 -9 -148 -7q-3 1 -6 1h-5q-9 2 -14.5 9t-4.5 16q1 10 3 17q2 5 7 18q4 8 12 11.5t17 0.5
q63 14 83 27q6 4 12 9q9 36 21 77q16 52 50 148q29 79 40 112q27 81 65 238l3 12q25 100 38 146l-5 5q-20 15 -61 8h-3q-7 -3 -15 -1q-8 3 -12.5 11t-1.5 17z" />
    <glyph glyph-name="asciicircum" unicode="^" horiz-adv-x="648" 
d="M128 344q14 22 38 66q9 17 23 43q1 2 11 21t13 24q7 13 12 23q33 60 54 94q29 47 50 64q7 7 17 5q1 0 2 1l2 1h2q3 1 5 2q7 1 12 0q9 -2 14 -9q2 -3 4 -7l3 -7q18 -42 47 -92q18 -31 56 -90q1 -1 3 -4q1 -3 2 -4q42 -67 64 -104v-1l1 -2q3 -4 5 -7v-1q4 -4 6 -8
q1 -2 2 -3.5t1 -3.5q1 -2 1 -4q1 -8 -3 -15t-13 -10q-2 -1 -5 -1q-3 -1 -8 -1q-7 -1 -20 -1q-28 -1 -35 0q-16 2 -19 17q-38 64 -90 166q-7 15 -32 65q-21 -42 -21 -43q-20 -39 -36 -69q-34 -62 -63 -97q-21 -25 -40 -38q-26 -17 -50 -12q-16 4 -17 20q-6 12 2 22z" />
    <glyph glyph-name="underscore" unicode="_" horiz-adv-x="536" 
d="M-66 -114q0 2 -1 4q-1 5 -1 8q-2 12 0 21q4 19 21 25q16 5 146 -3q7 -1 17 -1q99 -7 113 -7q21 0 113 -1q44 0 70 -1h23h6q14 -1 15 -1t1 -1.5t1 -4.5q10 -10 8.5 -22.5t-13.5 -19.5q-9 -5 -26 -8q-23 -3 -68 -3h-50q-31 1 -33 1q-32 -1 -108 5q-27 2 -43 3q-53 3 -87 0
q-44 -4 -73 -19q-8 -5 -16.5 -2t-13.5 11q-4 8 -1 16z" />
    <glyph glyph-name="grave" unicode="`" horiz-adv-x="451" 
d="M107 648q4 3 10 5q4 1 11 1t20 -2q16 -1 30 -3.5t47 -1.5h1h1h34q20 -1 36 -6q14 -5 25 -23q6 -10 13 -27q0 -2 3.5 -10t3.5 -9q3 -8 4.5 -10t3.5 -6q1 -2 2 -3q17 -27 24 -43q6 -6 6 -15q0 -14 -13 -20t-24 3q-25 9 -55 26q-21 12 -58 37q-7 4 -9 6q-37 24 -58 35
q-31 17 -57 23q-9 3 -13.5 10.5t-2.5 16.5q3 12 15 16z" />
    <glyph glyph-name="a" unicode="a" horiz-adv-x="622" 
d="M281 337l-3 -3q-26 -25 -45 -82q-19 -55 -21 -109q-2 -51 11 -70q60 41 93 93q3 15 7 32q9 34 21 74q0 1 1 3q-8 30 -22 47q-17 19 -42 15zM414 419q5 -1 35 -2h3h5q4 -1 8 -1q25 -1 38 -2q9 -1 15 -2q11 -2 17 -7t8 -11q1 -4 1 -7v-10q-1 -6 -4 -15q-1 -2 -2 -5
q-1 -4 -3 -9l-2 -5q-6 -16 -15 -39q-2 -4 -9 -21t-8 -19q-28 -71 -40 -114q-11 -39 -15 -71q6 0 12 1q12 4 25 18q4 4 11.5 12.5t11.5 12.5q5 4 11 6q11 4 21 -2q8 -5 11 -14q2 -4 3 -11t-2 -14q-1 -2 -2 -5q-2 -3 -6 -8l-1 -2l-5 -5q-1 -1 -2 -3h-1q-23 -27 -59 -49
q-25 -15 -65 -33q-44 -19 -73 -3q-26 15 -32 56q-3 20 -1 46q-52 -50 -110 -75q-71 -30 -113 -3q-49 32 -33 129q9 53 59 125t108 118q71 55 119 40q29 -9 44 -40l6 18q2 7 7 11q6 17 24 14z" />
    <glyph glyph-name="b" unicode="b" horiz-adv-x="658" 
d="M324 692q37 15 54 3q12 -9 8 -31t-29 -77q-19 -41 -27.5 -68t-19.5 -79l-11 -59l14 8q16 10 20 12q23 14 65 18.5t71 -2.5q45 -12 72 -37q56 -52 46.5 -129t-79.5 -151q-49 -52 -112.5 -82.5t-129.5 -35.5q-55 -4 -89 14q-9 4 -21 4q-18 0 -37.5 12t-28.5 30
q-14 28 -14 100q0 56 9.5 91.5t58.5 164.5q37 95 40 138q3 36 -4 48.5t-29 12.5q-27 0 -34.5 14t5.5 40q9 18 17 22.5t22 0.5q14 -3 60 -3q37 -1 52.5 2.5t50.5 18.5zM396 316q-9 7 -28.5 8t-33.5 -4q-15 -5 -33.5 -20.5t-18.5 -22.5q0 -5 -20 -45q-21 -43 -28 -64.5
t-7 -45.5q1 -28 10 -46q19 -36 37 -41q21 -5 52 23.5t55 77.5q30 59 34.5 111t-19.5 69z" />
    <glyph glyph-name="c" unicode="c" horiz-adv-x="561" 
d="M413 125q1 0 2 1q7 8 17 8l4 2q4 2 9 2q14 0 20 -13q2 -5 2 -9q0 -9 -6 -15q-1 -5 -5 -8q-56 -57 -116 -90q-87 -48 -151 -25q-2 0 -5 2q-17 2 -34 9q-28 3 -53 19t-39 42q-40 67 -16 144q20 65 82 123q58 55 132 84t135 21q4 -1 12 -1q7 1 11 0q10 0 17 -4q10 -6 15 -18
q9 -4 17 -13q9 -11 14 -28q18 -27 13.5 -61t-32.5 -57q-10 -9 -23 -3q-11 -2 -23 -1q-25 2 -40 15.5t-18 36.5q-3 25 8 53q-1 14 -5 22q-1 1 -2 3q-83 -4 -122 -114q-28 -79 -25 -178q27 -30 63 -25q13 5 27 11q24 11 60 32q2 1 6.5 4t9 5.5t5.5 3.5q12 7 21 12q7 4 13 8z
" />
    <glyph glyph-name="d" unicode="d" horiz-adv-x="710" 
d="M363 344q-52 26 -93 -15q-39 -41 -57 -120q-16 -75 -1 -119q4 -13 9 -17q45 18 75 52q24 27 53 87q2 5 4 11q1 0 1 1q4 7 4 9q6 13 11 22q3 7 7 14q-1 47 -12 75h-1zM418 679q45 -10 90 -7q38 3 87 13h1v1h1l2 2q3 2 6 3q12 6 23 0q9 -4 11 -14q1 -3 1 -7v-6
q-1 -4 -3 -11q-3 -9 -8 -26q-1 -2 -2 -3q-2 -7 -7 -22q-4 -9 -4 -10q-15 -50 -46 -142v-2l-12 -39q-1 -6 -15 -51t-18 -57q-7 -23 -12 -42q-38 -131 -35 -174q1 -5 2 -8q1 0 2 1q5 2 11 7q6 3 12 8q8 11 15 19q14 15 24 22q8 5 16 5q17 2 24 -14q4 -8 2 -18q-1 -5 -4 -11
q-4 -11 -13 -25q-21 -30 -52 -52q-36 -26 -76 -29q-24 -11 -48 -11q-31 0 -54.5 22.5t-30.5 54.5q-48 -47 -96 -63q-68 -22 -128 19q-17 11 -29 28q-5 7 -9 16q-10 12 -14 28q-6 23 -2 51q2 13 6 26q2 13 6 27q1 5 5 9q18 48 54 94q50 63 112 96q23 13 46 20q60 28 102 6
q25 -13 39 -42q5 14 15 40q19 52 26 80q10 34 14 62q3 21 -2 32q-4 1 -9 2q-1 0 -3.5 0.5t-5 0.5t-2.5 1q-12 2 -20 4q-12 5 -20 13q-16 17 -13 54q1 9 8 15t16 5q3 0 5 -1q5 1 9 0z" />
    <glyph glyph-name="e" unicode="e" horiz-adv-x="558" 
d="M206 213q82 22 118 66q18 21 20 43q2 17 -6 29q-7 9 -19 10q-15 1 -35 -14q-45 -36 -78 -134zM237 147q-16 -8 -46 -25h-1l-1 -1q-1 -1 -2 -1v-14q10 -31 30 -46q11 3 37 11q43 13 64 22q33 15 57 39q6 6 14 6q3 2 6 2q27 3 40 -4q15 -8 14 -25q0 -8 -5 -15q-2 -8 -8 -12
q-50 -33 -80 -50q-24 -17 -49 -25q-24 -10 -54 -21q-30 -15 -59 -19q-2 0 -3 -1q-7 -2 -13 0q-26 0 -50 9q-58 24 -80 91q-21 67 6 140q15 39 41 74q4 6 8 13l4 6q35 50 95 85q61 37 126 45q10 2 19 3q27 3 53 0q41 -6 63 -30q54 -59 0 -123q-28 -32 -86 -64
q-40 -27 -94 -46q-6 -2 -13 -6q-17 -7 -25 -10q-3 -5 -8 -8z" />
    <glyph glyph-name="f" unicode="f" horiz-adv-x="595" 
d="M83 -193q-54 -57 -142 -57q-4 0 -8 1q-54 1 -87 25q-35 26 -36 66q-2 39 27 58q33 23 70 -6q11 -9 20 -22q5 -8 12 -23q1 0 1 -1q1 -1 1 -2q11 -24 20 -29q17 13 46 42l4 4q0 5 1 9q32 83 60 187.5t39 175.5q-6 7 -4 15q1 11 5 24q3 8 7 19q0 2 2.5 8.5t3.5 7.5v13h-11
q-11 0 -28 2h-5q-5 0 -7 0.5t-4 0.5q-9 2 -14 9.5t-3 16.5q8 46 48 55q13 3 32 0q6 0 13 -2q13 44 30 84q27 63 59 107q16 21 33 37q19 20 42 33q57 29 124 9q59 -19 83 -59q14 -24 5 -46q-10 -22 -41 -31q-12 -3 -22 -3q-17 0 -29 8q-16 10 -38 38q-1 1 -2 3l-2 1
q-1 2 -2 3q-3 1 -5 3q-21 16 -35 14q-11 -2 -22 -20q-4 -7 -8 -16q-6 -16 -12 -33q-9 -34 -17 -85q-1 -11 -3 -24q9 -2 21 -3q5 -1 15 -1q6 -1 10 -1q4 -1 9 -1q3 -1 5 -1q4 -1 7 -1q8 -2 13 -8t5 -14q0 -1 -1 -3q1 -4 0 -8q-5 -18 -18 -40q-1 -1 -3 -4.5t-2 -4.5
q-5 -8 -8 -14q0 -1 -1 -1q-1 -9 -8.5 -14.5t-16.5 -4.5q-12 2 -33 9q-2 1 -3 1q-3 1 -5 2q-2 -12 -3 -20q-2 -5 -5 -10q-16 -101 -48 -209q-28 -94 -59 -159q-32 -67 -66 -99q-1 -6 -6 -11z" />
    <glyph glyph-name="g" unicode="g" horiz-adv-x="618" 
d="M221 420q33 8 79.5 1.5t82.5 -23.5q7 -3 11 -2.5t17 5.5q66 29 109 10q16 -7 22.5 -16.5t6.5 -26.5q0 -21 -11 -35.5t-26 -14.5q-8 0 -30 8q-23 8 -24 7t3 -16q12 -38 -5.5 -80.5t-57.5 -75.5q-57 -48 -133 -55q-30 -3 -33 -4q-4 -3 -22.5 -5t-23.5 0q-6 3 -10 0
q-8 -5 30 -23q17 -9 44 -20q106 -42 149 -75t47 -75q3 -26 -8 -52t-32 -42q-30 -23 -76 -36q-34 -11 -54 -16q-39 -12 -62 -15.5t-62 -3.5q-46 0 -75.5 6t-64.5 24q-41 21 -60 45t-19 56q0 38 24.5 66.5t57.5 28.5q30 0 36 -38l4 -21l-10 -12q-15 -19 -15 -32t15 -27
q40 -35 116 -31q80 5 106 37l9 11l-7 18q-6 13 -10 16.5t-21 10.5q-78 32 -108 47.5t-49 33.5q-40 37 -30.5 87.5t62.5 79.5l15 9l-14 14q-29 30 -32 73q-1 24 3 43q10 47 48.5 85.5t87.5 50.5zM309 362q-14 6 -27 3q-10 -2 -21 -13t-14 -23q-8 -28 -16 -55q-12 -46 -14 -65
q-1 -18 2 -24.5t15 -11.5q23 -10 47 14.5t39 71.5q9 33 6 64.5t-17 38.5z" />
    <glyph glyph-name="h" unicode="h" horiz-adv-x="665" 
d="M186 637q-1 1 -2 1q1 -1 2 -1zM468 357h-2q1 -1 1 -2q1 1 1 2zM180 683q10 -1 34 -6q13 -3 21 -4q30 -5 47 -1q0 1 6.5 3t14 4t9.5 3t3 1q15 5 24 7q6 2 10 2q3 1 5 1h6q8 -2 13 -8q6 -6 6 -16q0 -3 -1 -8t-3 -12q-4 -11 -12 -30l-2 -4q-2 -5 -9 -20q-18 -108 -65 -268
q18 20 39 37q66 52 121 52h6h27q16 -2 27 -5q19 -6 27 -19q9 -13 6 -39q-1 -17 -9 -45q-1 -7 -4 -15q2 -19 -3 -42t-22 -69v-1q-17 -45 -21 -66q-4 -25 1 -42q17 11 33 24l6 12q7 11 13 19q12 15 25 18q14 4 24 -5q8 -6 12 -18q2 -6 0 -12q-1 -3 -2 -5.5t-3 -5.5
q-3 -4 -7 -8q0 -1 -1 -2q-2 -3 -6 -6q0 -1 -2 -3h-1q-36 -40 -77 -64.5t-77 -26.5q-23 -2 -43 8h-1q-22 2 -33 23q-14 16 -19 39q-3 17 -2 37q-1 13 -1 27q0 11 9 17q6 25 17 53q1 3 2 5q0 2 1 5q10 58 13 80q3 27 2 41q-15 -12 -39 -41q-34 -42 -69 -101q-25 -43 -58 -109
q-2 -3 -4 -5l-2 -8q-8 -37 -14 -62q-2 -9 -10 -13.5t-17 -2.5q-4 1 -8 4q-71 -10 -116 -8q-9 1 -15.5 7.5t-5.5 15.5q0 6 3 11q1 4 3 8q30 53 106 284q68 208 82 283q-5 2 -11 3q-2 1 -12 3q-12 3 -18 6q-14 6 -19 17q-6 13 -1 29q4 11 15 25q4 6 11 8q7 5 15 4z" />
    <glyph glyph-name="i" unicode="i" horiz-adv-x="420" 
d="M281 685q7 1 14 1q33 -4 50 -50q14 -35 -2 -69q-19 -41 -62 -41q-31 0 -55.5 24t-22.5 54q2 31 18 53q20 27 52 29q4 0 8 -1zM261 97q1 0 2 2q2 2 4 5q3 5 9 8q3 3 6 5q10 8 18 11.5t16 2.5q13 -1 19 -12q6 -10 4 -23q-2 -7 -7 -15q-7 -13 -22 -27q-31 -28 -71 -49
q-34 -17 -62 -20q-21 -6 -39 -5q-27 2 -48 22q-34 35 -31 91q3 38 26 96q5 13 14 34q19 44 24 59q9 23 11 38q-7 -6 -23 -22l-2 -2q-1 -1 -1 -2l-4 -4q-12 -12 -20 -19q-13 -11 -25 -16q-9 -3 -17.5 1t-11.5 12q-1 6 -1 11q-1 7 3 14q18 30 36 52q26 31 52 45q68 33 105 32
q46 -3 55 -47q6 -28 -7 -78q-9 -33 -30 -90q-2 -6 -5 -14q-20 -54 -27 -73q-12 -36 -14 -55q-1 -7 0 -12q7 0 20 6h1q2 2 5 4q10 8 21 18q4 3 9 8l7 7z" />
    <glyph glyph-name="j" unicode="j" horiz-adv-x="419" 
d="M261 681q25 10 45 5q23 -5 35 -26q17 -32 3 -81q-13 -49 -43 -66q-21 -13 -43 -4q-12 6 -22 18q-6 4 -11 8q-18 15 -27 34q-18 38 4 73q20 30 57 39h2zM25 291q19 38 52 72q40 44 78 52q52 11 84 -3q33 -15 43 -52q14 -50 -18 -146q-9 -28 -23 -62q-15 -71 -26 -115
q-24 -97 -50 -153q-34 -73 -75 -87q-18 -16 -40 -27q-56 -29 -124 -25q-94 6 -113 50q-9 22 1 46q9 19 27 34q41 35 81 25q25 -6 36 -31q8 -21 3 -53q6 -6 7 -14q1 -1 3 -2l1 -1h1h2q11 5 28 31q34 55 71 172q33 108 51 213q16 93 11 128q0 -1 -1 -1q-5 -4 -13 -13
q-18 -21 -40 -64q-4 -8 -13 -11t-17 2q-3 1 -5 3q-6 0 -12 3q-8 4 -11 12.5t1 16.5z" />
    <glyph glyph-name="k" unicode="k" horiz-adv-x="675" 
d="M347 694q9 4 20 2.5t16 -7.5q12 -12 5.5 -44t-38.5 -112q-24 -63 -51 -156q-28 -95 -29 -98h4q5 4 13 12q103 97 193 128q24 8 49.5 7.5t41.5 -8.5t25 -21q6 -9 7.5 -15.5t1.5 -23.5q0 -25 -8 -36q-17 -24 -49 -24q-14 0 -23 2.5t-30 13.5q-24 11 -30.5 12.5t-19.5 -1.5
q-34 -6 -72 -33q-20 -15 -16 -18q5 -2 9 -2q6 0 26.5 -11t29.5 -18q38 -34 49 -113q6 -49 8 -57.5t6 -8.5t17 23q12 22 21 31.5t20 11.5t23 -2t16 -10q9 -16 -5 -29q-13 -13 -32 -34q-43 -48 -75 -63q-41 -20 -84.5 -10t-60.5 44q-11 21 -15.5 42t-10.5 72q-6 60 -13 60
q-4 0 -19 -12t-19 -19q-3 -6 -14 -19q-8 -10 -8 -15t-8 -21t-25 -67q-17 -50 -21 -57q-5 -9 -20.5 -12.5t-55.5 -4.5q-41 0 -51 3t-16 18q-4 9 1 39q16 89 56.5 216.5t93.5 258.5q24 56 24 63q0 9 -3.5 12.5t-11.5 3.5q-11 0 -23.5 5.5t-18.5 13.5q-5 8 -7 36q-1 19 -0.5 24
t6.5 11l8 8l86 -2q61 -2 74 -1.5t20 4.5q9 7 13 8z" />
    <glyph glyph-name="l" unicode="l" horiz-adv-x="455" 
d="M299 635v1h-1zM183 603q-2 -1 -3 -1t-3 -1q-4 0 -7 -1q-14 -1 -23 8q-9 8 -10 22q-2 10 0 25q1 14 13 19q5 5 11 6h1h1l1 1h1h1h1h1h1l1 -1h1h1q23 -6 51 -6q19 0 47 4q1 0 5 0.5t5 0.5q6 1 10 2q11 1 18 2q8 0 14 -1q4 1 7 1q11 2 19 2q14 0 23.5 -5.5t12.5 -15.5
q2 -6 1 -13.5t-6 -16.5q-2 -4 -4 -7q-1 -3 -4 -7q-1 -2 -2 -3q-36 -70 -62 -173q-2 -9 -11 -14q-6 -18 -11 -34q-7 -67 -39 -171q-6 -20 -17 -54q-22 -70 -30 -96q8 -4 16 -6q3 2 6 5q30 23 47 42q3 4 7 6l4 2l8 2q4 1 7 2h4q6 0 11 -2q12 -4 14 -18q1 -5 -1 -10
q-1 -5 -4 -10q-4 -5 -10 -14q-13 -17 -20 -23q-42 -38 -73 -55q-27 -13 -50 -14q-7 0 -13 1q-36 -12 -62 0q-41 18 -41 86q0 30 13 56q13 71 55 203q7 23 16 50q2 8 24 76l28 82q6 18 10 33q1 17 -4 28l-2 6l-1 1h-1q-1 0 -4 -1z" />
    <glyph glyph-name="m" unicode="m" horiz-adv-x="1042" 
d="M174 420q8 1 31 1q62 -2 79 -58q3 -13 3 -42.5t-4 -47.5q-1 -6 3 -1q5 7 29 47q14 24 44.5 48.5t58.5 35.5q19 7 49.5 11.5t45.5 2.5q55 -5 72 -62q7 -21 5 -57v-36l10 13q10 12 50 53q41 40 76 60t78 27q21 4 46 2.5t36 -7.5q10 -4 20.5 -15.5t14.5 -22.5
q14 -33 4.5 -82.5t-47.5 -142.5q-25 -60 -24 -62q5 -5 57 22q31 15 41 13q9 -1 14.5 -7.5t5.5 -14.5q0 -15 -25 -39t-57 -40q-98 -48 -145 -32t-38 94q3 29 5 32t2 16q-1 11 5 24q6 12 19 57t16 65q4 32 -4.5 40.5t-29.5 -7.5q-26 -19 -66 -66.5t-58 -81.5q-12 -21 -30 -67
q-17 -43 -23 -55.5t-21 -35.5q-14 -22 -26.5 -28.5t-34.5 -3.5q-39 3 -51 4q-23 2 -29 4t-12 9q-9 9 -8.5 18t9.5 30q34 81 54.5 162.5t13.5 108.5l-3 13l-15 -2q-28 -4 -64 -34l-21 -19l-56 -113q-58 -116 -83 -152t-52 -44q-16 -5 -22.5 -4.5t-13.5 6.5q-7 7 -29 14
q-20 6 -27.5 12.5t-7.5 18.5t25 93q65 213 59 230q-1 3 -22 -22q-2 -2 -3 -4q-24 -28 -36 -38q-16 -13 -35 -10.5t-19 17.5q0 9 11.5 32.5t23.5 39.5q9 11 32.5 32.5t34.5 26.5q5 3 27.5 11t31.5 10z" />
    <glyph glyph-name="n" unicode="n" horiz-adv-x="666" 
d="M464 185l-2 -12q2 7 3 12h-1zM482 3q-16 -14 -42.5 -17t-50.5 5q-28 9 -41 28l-2 4l-5 5q-6 7 -8 17v14q1 11 4 31q3 15 8 39q1 2 1.5 5.5t1.5 7.5t2 8.5t2 8.5t1.5 7t0.5 5l1 2q3 12 5 22q18 86 16 116q-1 1 -1 3q-5 -3 -11 -9q-5 -6 -12 -14q-1 -2 -6 -7l-4 -6
q-63 -77 -90 -148q-2 -7 -8 -11q-3 -13 -7 -27q-9 -31 -17 -53q-4 -11 -7 -18q-2 -4 -4 -6q-4 -6 -9 -10q-9 -5 -25 -7q-10 -1 -25 0h-10h-23l-3 -1q-4 -1 -7.5 -1.5t-5.5 -0.5l-12 -2q-13 -2 -21 -2q-7 1 -12 2q-10 3 -16 11q-4 5 -4 11q-1 3 0 7q0 3 1 8q2 6 6 14q0 2 1 4
l7 15q0 1 3.5 8.5t8 17.5t6.5 15q14 30 25 57v1l10 30l7 25q5 16 8 28q12 42 14 66q-1 2 -1 3q-4 9 -7 12q-1 2 -2 3h-1h-2q-6 -1 -15 -6q-6 -3 -12 -2q-22 -24 -27 -43q-2 -9 -9.5 -13.5t-16.5 -2.5t-13.5 10t-2.5 17q6 28 33 58q21 24 47 42q25 17 43 20q2 4 6 5
q39 20 68 11.5t42 -42.5q15 -38 9 -108q16 23 31 41q31 39 61 59q68 47 109 51q48 5 63 -40q10 -30 2 -84q-6 -38 -23 -100q-2 -11 -6 -26q-1 -1 -1.5 -4t-1.5 -6l-2 -6q-1 -3 -2 -5v-2q-3 -14 -6 -23q-7 -25 -10 -42q-2 -6 -3 -11q7 6 17 17l8 8q7 8 9 11q12 12 22 21
q5 5 10 9q8 6 15 8q18 5 28 -9q5 -8 5 -19q-1 -5 -2 -12q-7 -25 -19 -38q-30 -31 -60 -51q-16 -10 -31 -17q-2 -1 -3 -2z" />
    <glyph glyph-name="o" unicode="o" horiz-adv-x="610" 
d="M319 366q-5 -8 -13 -10q-5 -1 -10 -4t-10 -8q-3 -2 -7 -4q-23 -20 -43.5 -59.5t-32.5 -85.5q-15 -62 -5 -105q9 -42 39 -51q56 -16 96 43q39 58 45 149q7 87 -20 125q-11 14 -24 13q-7 0 -15 -3zM298 420q17 7 38 7q30 1 68 -9q57 -15 90.5 -48.5t42.5 -81.5
q16 -83 -41 -176q-56 -90 -139 -125q-78 -33 -145 5q-9 -4 -18 0q-10 5 -35 13q0 1 -1 1h-2q-2 1 -3 1q-20 7 -32 12q-18 8 -30 18q-35 28 -47.5 72.5t-2.5 96.5q8 47 31 88t53 65q41 32 102 48q31 8 71 13z" />
    <glyph glyph-name="p" unicode="p" horiz-adv-x="624" 
d="M378 345q-1 -1 -3 -2q-8 -5 -18 -15q-40 -40 -61 -81q-1 -3 -3 -7l-2 -4q-2 -2 -2 -4q-15 -29 -22 -47q-3 -8 -6 -17q-6 -38 -19 -89q26 -21 41 -23q5 0 15 9q13 14 28 42q29 56 46 132q16 74 7 104q-1 1 -1 2zM317 23v1h-1q0 -1 1 -1zM-59 -175q25 2 52 27l5 4l6 6
q13 11 23 18q4 14 10 33q3 7 12 35.5t10 29.5q13 41 23 72q6 20 12 38q34 108 48 171q9 38 11 60q1 11 1 18v1v2h-3q-2 0 -5 -1l-4 -2q-8 -7 -18 -19q-3 -3 -13 -16l-1 -1q-20 -24 -36 -35q-26 -16 -60 -16q-8 0 -14 5.5t-7 12.5q-10 14 0 27q19 23 59 53q46 36 88 56
q57 28 95 20q52 -11 60 -76q18 17 38 31q57 40 103 37q49 -3 79 -32t37 -78q14 -84 -36 -182q-51 -102 -130 -134q-83 -34 -160 30q-33 -112 -62 -178q7 -4 17 -9q2 0 5 -2q16 2 23 2q16 1 26 -5q15 -8 18 -27q2 -13 -2 -33q-4 -17 -21 -17q-7 -5 -16 -6q-3 0 -7 1
q-10 0 -28 2q-83 6 -123 6q-70 1 -126 -10q-11 -2 -19 5l-2 2q-8 5 -9.5 14t3.5 16q4 7 9 20l2 3q1 4 2 5q4 11 17 13q3 2 8 3z" />
    <glyph glyph-name="q" unicode="q" horiz-adv-x="656" 
d="M304 345q-24 -17 -45 -41q-13 -22 -24 -42q-18 -32 -30 -59q-8 -18 -14 -34q-4 -36 3 -62q3 -12 8 -22q37 -18 71 5q31 21 70 84q4 6 20 33q-1 11 -1 38v18q-1 52 -13 70q-5 10 -15 12q-12 3 -30 0zM480 68q-1 -2 -16.5 -42t-20.5 -54q-5 -13 -9 -25q-28 -80 -30 -107
q4 -1 9 -2q4 -1 15 -2q13 -2 20 -4q13 -3 22 -10q23 -17 15 -54q-3 -8 -10.5 -13t-16.5 -3q-4 1 -7 3q-3 0 -6 -1h-18q-6 1 -13 2q-5 -11 -17 -12q-23 -4 -55 -2q-21 1 -56 5q-3 1 -9 1q-56 7 -79 7q-1 0 -15 -1q-6 -1 -9 -1q-12 -1 -20 -1q-6 0 -11 1q-9 2 -14 8
q-11 11 -8 27q2 5 6 12v1q1 2 1 3q4 13 18 15q6 4 13 3q46 -6 82 17q5 3 11 8q11 51 48 138q6 15 16 36q1 2 9 20t10 23q7 15 11 27q-29 -35 -56 -59q-55 -49 -104 -59q-74 -14 -131 56q-49 60 -35 131q7 40 34 81q34 71 84 118q73 68 158 70q39 0 72 -15t53 -43
q10 -14 16 -29q33 32 47 55q-1 3 -1 6q-1 9 5 15.5t16 7.5h1h4h3l2 1q4 1 7 1q6 1 11 1q13 1 21 1q7 0 11 -1q11 -2 16 -8q6 -7 7 -16q0 -5 -1 -10q-2 -6 -5 -13q-1 -1 -2 -3q-10 -67 -37 -148q-18 -54 -61 -158q0 -2 -1 -5z" />
    <glyph glyph-name="r" unicode="r" horiz-adv-x="579" 
d="M145 34h2v3q-1 -1 -2 -3zM17 292q15 18 46 46q43 41 79 66q53 36 87 35q27 -1 42 -20q14 -19 16 -52q3 -42 -9 -91l-2 -6q5 6 9 12q62 102 114 131q38 22 67.5 13.5t38.5 -41.5q8 -25 1.5 -56t-23.5 -55q-17 -25 -48 -23q-16 1 -28 10q-7 5 -15 15l-2 3l-2 2q-3 5 -6 7
q-16 12 -35 -3q-12 -10 -25 -27q-14 -24 -28 -50q-31 -58 -52 -113.5t-24 -87.5q-1 -9 -8 -15t-16 -5q-7 1 -12 5h-8h-12l-10 -1q-11 -1 -19 -1q-23 -1 -37 -1q-23 0 -31 5q-8 4 -11 12q-2 4 -2 8.5t1 9.5q1 7 4 16l2 4q1 2 2 5q0 1 1 4v1q1 2 1 3q1 0 1 1q1 3 4 14l4 10
q3 11 4 14q13 41 23 73q6 21 11 40q23 86 23 120q-6 -5 -14 -12q-26 -27 -48 -67q-5 -10 -17 -11q-12 -13 -27 -4l-2 1l-1 1h-1v1h-1l-1 1h-1l-1 1l-2 1l-1 1h-1v1h-1l-1 1h-1l-1 1q-8 5 -10 14t3 16q3 6 9 9q1 4 4 8z" />
    <glyph glyph-name="s" unicode="s" horiz-adv-x="554" 
d="M390 33q-11 -10 -26 -18q-47 -27 -117 -30q-70 -4 -132 15q-40 -1 -75 39q-9 7 -16 15q-6 7 -5 17q-15 33 2 59q19 28 59 26q38 -2 62 -32q21 -26 22 -64q26 -11 48 -16q39 -10 60 -3q18 5 20 29q1 17 -13 33q-10 12 -39 35h-1q-18 14 -26 21q-27 16 -44 29
q-32 25 -47 56q-29 58 6 106q27 38 90 61q53 20 114 24t97 -10q4 -2 7 -5q21 -5 34 -21q22 -29 12 -72q-4 -18 -13 -32q-9 -12 -21 -18q-2 -2 -4 -5q-16 -15 -40 -4q-15 7 -33 27q-14 16 -27 48q-1 3 -5 12q-34 15 -75 3q-27 -24 -22 -53q6 -4 12 -9q10 -7 26 -18
q22 -14 29 -19q35 -24 56 -41q29 -26 43 -50q2 -3 3 -6q13 -17 18 -34q11 -41 -29 -88q-4 -5 -10 -7z" />
    <glyph glyph-name="t" unicode="t" horiz-adv-x="471" 
d="M209 569q75 -9 130 -2q9 2 16 -3.5t8 -14.5q2 -15 -11 -22q-12 -47 -36 -110q7 -1 23 -1h1q28 -1 43 -3q9 -2 14.5 -9t3.5 -16q-1 -14 -15 -18q-1 -4 -3 -7q-4 -6 -10 -11q-21 -16 -60 -23q-16 -3 -33 -4q-26 -68 -39 -112q-21 -73 -23 -134q0 -1 1 -1q5 -18 12 -25
q10 10 28 35q1 1 4 7q0 1 2 4.5t3.5 6.5t1.5 4q5 9 8 15q1 2 1 3q-2 9 2.5 17t13.5 10q32 9 50 -2q12 -7 16 -21q2 -10 0 -21q-4 -17 -17.5 -34t-30.5 -27l-3 -3q-28 -30 -58 -45q-21 -11 -40 -11q-22 -7 -46 -4q-35 4 -51 11q-31 14 -43 44q-18 46 4 127q8 30 22 72
q9 23 29 74q2 6 4 11q0 1 1 2q-28 1 -44 8q-39 15 -29 59q2 9 9.5 14t16.5 3h1q23 0 54 -6q9 -2 19 -4q7 20 12 38q17 58 15 95v4q-2 5 -1 11q1 9 8 14.5t16 4.5z" />
    <glyph glyph-name="u" unicode="u" horiz-adv-x="658" 
d="M166 110l2 8h-1q-1 -4 -1 -8zM114 244q2 10 5 52v4q1 23 2 33q-14 -11 -28 -28.5t-17 -27.5q-1 0 -1 -1v-1v-1l-1 -1v-1l-1 -2q-2 -4 -2 -6q-2 -4 -5 -7q-5 -5 -11 -8q-8 -3 -17 -1q-3 0 -6 1h-2l-1 1q-2 0 -3 1q-9 1 -14 8.5t-4 16.5q1 5 5 10q0 5 3 10q46 69 101 99
q19 10 35 16q3 3 7 4q47 15 78 7q32 -9 44 -41q9 -23 6 -59q-3 -27 -12 -65q-4 -15 -10 -36l-7 -25q-4 -15 -6 -23q-6 -23 -7 -34q0 -5 -3 -9l-2 -14q-4 -19 -4 -31q9 7 22 20q13 12 34 41l1 2q1 1 2 2.5t2 2.5q8 11 14 18q2 4 5 9l1 1q0 1 1 1q24 40 39 60q7 10 15 20
q6 11 13 24q1 5 3 13.5t3.5 14t1.5 7.5q4 13 7 22q2 13 3 18q4 15 6 26q-1 5 -1 10q1 9 8.5 14.5t16.5 4.5q8 -1 24 -4q9 -1 13 -2q18 -2 30 -3h10q1 0 11 2h4q12 2 19 2h4q6 3 13 2q9 -2 14.5 -9t4.5 -16q-8 -54 -44 -137q-2 -5 -11 -24q-23 -53 -33 -82q-14 -41 -18 -76
q3 -5 6 -7q2 -2 6 -2q2 0 4 1q1 3 4 6q6 6 15 14q2 1 5 4t4 3q20 17 26 26q1 1 1 2t1 2q2 9 10 13.5t17 2t13.5 -10.5t1.5 -17q-14 -50 -57 -88.5t-87 -40.5q-34 -18 -66 14q-15 15 -24 36.5t-9 40.5q0 17 4 38q1 8 3 17q1 16 4 34q-3 -4 -7 -8q-1 -1 -2 -3q-26 -41 -44 -64
q-31 -41 -65 -68q-8 -6 -17 -4q-17 -10 -39 -20q-41 -18 -68 -10q-30 9 -38 44q-3 14 -3 33q-3 20 2 44q7 31 24 84q1 3 2 9q9 27 13 40q-1 5 0 10z" />
    <glyph glyph-name="v" unicode="v" horiz-adv-x="621" 
d="M497 369l-2 2v-2h2zM261 78q61 7 92 33q26 21 49 80q2 3 7 16t5 14q8 19 14 34l1 1q-3 20 -5 35q-8 71 2 102q10 29 34 35q23 5 53 -15q55 -36 33 -115q-12 -42 -45 -91q-5 -18 -14 -32q-57 -92 -130 -146q-48 -36 -93 -44q-32 -5 -62 3q-29 2 -54 11q-56 22 -66 72
q-10 54 25 102q13 17 35 36q13 12 38 32l2 1q0 1 1 1l3 3q42 33 57 52q2 2 4 5q-9 -3 -19 -3q-15 -1 -33 1q-8 2 -20 4q-2 -1 -5 -1q-7 0 -13 3q-2 1 -4 3q-26 6 -40 3q-12 -2 -23 -10q-1 -8 -6.5 -14t-13.5 -6q-9 -1 -16 4.5t-8 15.5q-3 6 -2 13v4q2 30 8 51q-2 10 4 18
q5 6 11 12q10 13 25 18q19 9 41 7q17 -1 37 -9q11 -4 33 -15q5 -3 8 -4q25 -12 39 -15q3 4 8 13q1 0 2 1v1q8 13 14 20q12 13 28 16q17 3 28.5 -6.5t13 -27t-7.5 -45.5q-15 -47 -30 -70q-1 -2 -2 -3q-4 -10 -10 -23q-7 -14 -30 -52q-9 -14 -14 -23q-23 -42 -25 -64.5
t21 -34.5q7 -4 15 -7z" />
    <glyph glyph-name="w" unicode="w" horiz-adv-x="889" 
d="M724 427q10 4 26 4q23 0 40.5 -13.5t24.5 -36.5q5 -17 3.5 -52.5t-8.5 -58.5q-8 -24 -32 -71t-41 -69q-37 -51 -84.5 -88t-93.5 -52q-42 -13 -90 2t-81 52l-12 13l-27 -16q-28 -16 -67.5 -33.5t-61.5 -23.5q-25 -7 -49 -7q-17 -1 -24.5 1t-22.5 9q-20 10 -38.5 28
t-27.5 36.5t-9 46.5t9 46q16 34 89 96q26 22 44.5 41.5t18.5 24.5q0 3 -3 3q-2 -1 -17 -6q-17 -6 -32 -6q-17 0 -38 5.5t-32 13.5l-12 9l-10 -15q-13 -22 -17.5 -25.5t-14.5 -2.5q-13 1 -19 11q-5 8 -5 12.5t5 22.5q4 18 12.5 38t15.5 28q15 17 39 21q17 4 35 0t54 -19
q35 -13 47.5 -14.5t20.5 8.5q14 20 18.5 23.5t12.5 3.5q16 0 25 -14.5t10 -38.5q0 -28 -37 -85q-18 -27 -18 -33q0 -7 -7 -19q-14 -24 -25 -95q-4 -26 1 -30q17 -15 37 -15q17 0 28 6t27 24l20 23l-1 24q-4 53 22 115t67 95q43 35 110 40q49 4 67 -24q20 -31 3 -89
q-6 -20 -27 -65.5t-37 -72.5l-9 -16l11 -10q49 -40 96 -13q24 15 47 47t30 62q3 11 1.5 19t-12.5 38q-25 74 -12 104q11 24 37 33zM504 334q-10 10 -13 10q-6 0 -10 -62.5t2 -68.5q1 -1 6 3t12 13t16 22q12 19 10 32q-4 31 -23 51z" />
    <glyph glyph-name="x" unicode="x" horiz-adv-x="611" 
d="M24 141q39 6 53 -21q5 -10 6 -23q0 -9 -1 -21q-1 -3 -1 -7q20 12 39 31q17 17 47 55l1 1q24 31 38 46q-9 41 -19 65q-14 31 -34 49q-5 -6 -13 -18q-7 -10 -8 -12q-5 -7 -8 -12q-12 -16 -23 -23q-10 -6 -21 -7q-7 -2 -14 1q-3 1 -5 2q-8 4 -11 12.5t0 16.5q3 7 9 10
q18 39 41 68q33 43 75 62q36 17 69 4q28 -11 50 -43q17 -24 32 -61q39 42 77 68q54 35 90 26q25 -6 37 -32q11 -22 11 -58q0 -23 -18.5 -36.5t-41.5 -7.5q-7 2 -11 8q-3 4 -4 8q-1 3 -1 6v5q1 2 2 6l1 3v3q1 5 2 8q3 12 4 21q1 12 -1 18q0 2 -1 3v-1h-1q-6 -2 -16 -8
q-20 -13 -49 -43q-14 -14 -30 -33q-13 -14 -27 -31q2 -7 5 -14q0 -2 10 -35.5t13 -41.5q12 -39 21 -59t16 -24q1 0 1.5 0.5t1.5 0.5q6 12 16 34q1 0 1 1l17 34q4 8 12.5 10.5t16.5 -1.5q4 -2 7 -6l6 -2q14 -8 14 -24q0 -12 -10 -29q-2 -3 -3 -5q0 -1 -2 -4l-2 -3
q-2 -3 -3 -4q-31 -59 -64 -81q-49 -34 -110 -1q-47 25 -72 80q-9 20 -16 46l-2 -2l-10 -13q-15 -16 -25 -28q-21 -24 -38 -40q-42 -41 -73 -50q-23 -8 -42 2t-29 35q-19 47 -3 98q3 9 11 13q4 4 10 5z" />
    <glyph glyph-name="y" unicode="y" horiz-adv-x="585" 
d="M230 -123q-1 -3 -3 -5q-8 -12 -22 -24q-3 -4 -5 -8q-7 -9 -18 -9q-1 -1 -2 -1q-26 -22 -51 -36q-63 -36 -130 -30q-74 -13 -115 1q-29 11 -37.5 34.5t5.5 54.5q9 20 28 27q14 6 34 2q13 -3 33 -11q6 -2 16 -7l3 -1q2 -1 4.5 -2t5.5 -2t4 -2q47 -20 75 -23h9q21 8 37 26
q31 34 52 123q3 11 6 27q0 1 3 12.5t3 13.5q3 12 5 22q-1 105 -19 186q-9 41 -17 60q-8 20 -15 28q-2 -3 -5 -7q-5 -8 -15 -27l-3 -6q-15 -26 -24.5 -37t-20.5 -14q-15 -5 -29 3q-8 5 -10.5 13.5t2.5 16.5l4 6q12 49 44.5 86.5t73.5 50.5q48 15 88 -11q35 -22 54 -73
q15 -21 23 -54q12 -48 10 -127q-1 -37 -6 -92l-1 -3q0 -4 -0.5 -10.5t-1.5 -11.5q13 14 24 27q42 47 68 90q13 21 23 42q8 49 -18 108q-16 35 -19 63q-3 26 7 42q13 24 45 22q21 -1 35 -15q33 -3 44 -48q11 -42 -5 -111q-18 -83 -74 -159q-22 -30 -54 -64q-20 -22 -57 -59
l-4 -4q-3 -3 -4 -3q-15 -16 -25 -26q-1 0 -1 -0.5t-4 -4.5t-5 -6q-30 -35 -48 -53z" />
    <glyph glyph-name="z" unicode="z" horiz-adv-x="553" 
d="M337 106q4 2 9 4q7 3 16 8l3 2q3 1 6.5 2.5t7 3.5t5.5 2q13 7 21 8q8 2 15 1q14 -4 18 -17q3 -8 1 -17q-1 -6 -4 -14q-34 -79 -85 -99q-40 -15 -96 7q-14 6 -40 18l-34 17q-17 7 -29 9q-26 5 -42 -12q-6 -5 -14 -6q-30 -27 -50 -34q-5 -2 -10 -2q-10 -1 -17 6q-9 8 -8 20
q0 5 3 11q5 13 28 37q13 14 37 33q73 75 205 172q12 9 26 19h-2q-28 -2 -69 9q-10 3 -27 8q-11 3 -19 5q-12 -5 -29 -15q-5 -3 -11 -7l-5 -3l-6 -3q-12 -8 -20 -12q-12 -6 -21 -7q-16 -3 -28 5q-6 5 -8 12q-6 11 0 21q18 29 39 52q11 13 35 34q0 1 1 1q6 5 9 8q42 40 83 39
q32 0 69 -26q6 -4 14 -10q1 -1 4 -3.5t6 -4.5l3 -2q16 -12 27 -19q3 0 6 1q14 3 33 18l1 1l2 2l3 3q6 5 12 9.5t11 7.5q16 11 29 12q14 1 23 -8.5t9 -23.5q0 -38 -40 -83q-30 -34 -88 -77q-36 -27 -90 -63q-4 -2 -48 -31q0 -4 -3 -7h5q5 0 9 -1q5 0 9 -1q19 -2 52 -10
q36 -8 48 -10z" />
    <glyph glyph-name="braceleft" unicode="{" horiz-adv-x="466" 
d="M256 -141h-1q1 -2 1 -4v4zM369 638q-9 3 -25 0q-1 -2 -3 -4q-35 -28 -40 -69q-2 -18 0 -42q2 -14 7 -47q6 -39 7 -61q3 -36 -3 -66q-15 -77 -88 -138l-8 -6q48 -28 68 -79q10 -29 13 -68q2 -27 0 -70q0 -5 -1 -15q-2 -45 -1 -65q1 -33 7 -54q16 -49 74 -63q14 -3 17 -17
q2 -3 2 -7q3 -9 -2 -16.5t-14 -10.5q-55 -13 -95 10q-22 1 -39 14q-23 17 -39 53q-24 53 -37 157q-4 34 -9 81q0 1 -2 24.5t-3 34.5q-5 20 -11 36q-18 49 -43 53q-9 1 -14 7t-5 14v4q1 3 2 7q3 16 19 18q36 5 60 31q0 9 4 17q10 24 13 55q3 25 3 76q-1 39 0 59q2 33 10 59
q21 66 87 109q23 15 51 21.5t50 0.5q8 -3 12.5 -10.5t2.5 -16.5t-10 -13.5t-17 -2.5z" />
    <glyph glyph-name="bar" unicode="|" horiz-adv-x="483" 
d="M281 -231q-7 63 -3 147v1q-17 92 -14 374q3 269 18 374q0 1 1 3q0 5 4 11q5 6 14 8q2 0 5 1h10q9 -1 22 -2t23 -3q5 -1 9 -2q2 0 4 -1q4 -1 7 -3q9 -1 15 -10q8 -1 13 -7.5t5 -14.5q-2 -50 -6 -146q1 -24 0 -50q-1 -56 -8 -139q-2 -51 -3 -101q-3 -79 -5 -148l2 -16
q5 -42 4 -106q0 -24 -1 -68q-1 -73 0 -97q1 -15 -14 -21q-5 -6 -13 -7q-26 -3 -57 5l-8 -2q-9 -1 -16 5t-8 15z" />
    <glyph glyph-name="braceright" unicode="}" horiz-adv-x="462" 
d="M119 681q57 5 96 -12q78 -23 95 -94q6 -27 4 -64q-2 -24 -9 -64l-2 -12q-8 -47 -10 -67v-8q1 -36 8 -59q4 -16 11 -27q21 -14 49 -27q1 0 1 -1q9 -2 14 -10q4 -1 7 -4q7 -5 8.5 -14t-3.5 -16q-3 -5 -8 -11q0 -1 -3.5 -5.5t-4.5 -6.5q-5 -6 -8 -11q-40 -56 -52 -92
q-3 -9 -5 -17q1 -5 2 -14q4 -49 5 -80q4 -97 -24 -149q-39 -74 -137 -69h-4q-17 -2 -38 1q-9 1 -14.5 8.5t-4.5 16.5t8.5 14.5t16.5 3.5q28 -4 44 6q14 9 21.5 30t8.5 57q2 26 0 72q0 5 -1 14q-2 60 -1 86q2 48 16 74q15 27 45 48q18 12 53 28q1 1 2 1t1 1h1q6 3 11 5
q-22 10 -37 29q-80 55 -96 132q-6 29 -3 64q1 22 8 59q6 33 7 46q2 22 0 37q-6 33 -43 51q-4 3 -7 7q-12 0 -24 -1q-9 -1 -16 5t-8 15t5 16t15 8z" />
    <glyph glyph-name="asciitilde" unicode="~" horiz-adv-x="731" 
d="M96 246q3 37 20 66q10 19 37 52q42 49 103 56q45 5 110 -14q21 -6 56 -19q48 -17 66 -22q33 -9 53 -9q22 1 35 12q17 14 26 46q2 8 10 12.5t17 2.5q2 -1 3 -2q12 3 21 -6q6 -5 7 -14q5 -22 -12 -65q-15 -39 -30 -55q-42 -47 -115 -42q-45 3 -126 31q-7 2 -18 6
q-56 20 -80 26q-40 11 -66 9q-27 -3 -44 -20q-20 -21 -28 -68q-2 -9 -9.5 -14t-16.5 -3.5t-14 9t-4 16.5h1q-2 4 -2 9z" />
    <glyph glyph-name="exclamdown" unicode="&#xa1;" horiz-adv-x="358" 
d="M229 439q17 0 32 -13q25 -19 27 -51q2 -38 -30 -65q-23 -19 -49 -9q-18 8 -31 30q-12 19 -15.5 41t3.5 39q10 21 27 28.5t36 -0.5zM187 225l6 2q12 2 20 -8q4 -4 5 -9q1 -3 1 -7q0 -32 -7 -72q-5 -23 -16 -68l-1 -2q-14 -59 -18 -90q-1 -4 -2 -12q-3 -24 -4 -35
q-11 -79 -37 -124q-23 -39 -50 -46q-29 -8 -51 18q-15 18 -22.5 46.5t-3.5 54.5q1 8 3 16q8 33 37 92q19 39 26 55q13 32 43 92q0 1 0.5 1.5t0.5 1.5q28 54 40 83q3 8 11.5 11.5t16.5 0.5q1 -1 2 -1z" />
    <glyph glyph-name="cent" unicode="&#xa2;" horiz-adv-x="556" 
d="M194 89q5 -15 16 -24q19 39 59 114q16 32 23 44q37 71 59 119v3q0 7 1 13q-3 8 -8 11q-81 -47 -124 -136q-34 -72 -26 -144zM253 52q5 -2 9 -7q3 1 6 3q19 7 47 22l16 9q16 9 21 12q1 0 2 1q4 3 6 4q10 8 18 13q5 3 9 6q21 13 33 15q17 4 28 -6.5t7 -28.5q-1 -6 -5 -10
q-1 -2 -3 -4q-3 -3 -7 -5q-5 -4 -14 -10q-2 -1 -3 -2q-2 -2 -7 -5t-10 -5l-4 -3q-54 -37 -85 -53q-50 -24 -101 -27h-1q-27 -62 -45 -117q-3 -9 -11 -13t-17 -1.5t-13 10.5t-1 17q17 54 43 113q-34 13 -67 42q-63 57 -60 112q5 68 57 139q46 64 114 109q68 46 127 52
q24 3 43 -2q2 4 4 10v1q16 46 25 69q15 38 31 66q5 8 13.5 10.5t16.5 -2t10.5 -13.5t-2.5 -17q-14 -25 -28 -61q-9 -21 -24 -67q-4 -9 -6 -17h1q12 -2 23 -11q17 -16 25 -45t2 -59q-5 -26 -17 -40q-14 -18 -35 -17q-30 2 -53 39l-1 1q-16 -31 -39 -76q-7 -12 -23 -44
q-37 -71 -55 -107z" />
    <glyph glyph-name="sterling" unicode="&#xa3;" horiz-adv-x="864" 
d="M-13 107q3 19 12 35q13 24 33 31q10 4 73 7q26 1 58 3q41 91 66 140q40 78 80 135q101 141 243 196q16 6 34 10q41 15 87 15h6h21q13 -1 23 -5q4 -1 8 -3q1 -1 3 -2q17 -8 34 -23.5t24 -27.5q5 -10 0 -20q4 -19 -4 -37q-15 -30 -51 -35q-38 -6 -62 23q-18 21 -20 55h-5
q-21 1 -44 -2q-9 -1 -17 -3q-3 -1 -5 -1l-1 -1q-39 -22 -94 -110q-22 -36 -52 -90q-11 -20 -27 -50q-21 -39 -27 -51q-37 -68 -62 -109q91 1 120 0q9 5 19 2q9 -4 12.5 -12t0.5 -17l-1 -2q0 -1 -1 -4l-2 -6l-2 -6q-1 -3 -2 -5q-5 -13 -10 -21q-11 -16 -24 -19
q-42 -10 -108 -9q-34 1 -62 6q-28 -39 -55 -66q-2 -3 -6 -4q-12 -11 -26 -22q-2 -4 -5 -9q33 10 66 1q26 -8 52 -28q17 -12 43 -38l9 -9q5 -5 9 -8q33 -31 53 -38q25 -8 53 12q13 10 19 27q4 12 7 41v1v1q3 28 7 43q7 26 23 44q19 20 37 26q23 8 40 -6q26 -21 21 -70
q-4 -46 -32 -80q-10 -13 -22 -22q-44 -60 -126 -91q-50 -21 -99 -20t-84 25q-14 9 -26 24q-7 8 -18 25l-1 1q-12 18 -19 25q-10 11 -21 16q-12 5 -31 2q-8 -2 -22 -5q-23 -34 -47 -60q-20 -21 -51 -35t-59 -14q-15 0 -26 4q-18 8 -20 26q-4 26 32 59q5 4 9 8q17 22 43 46
q20 18 47 37q13 9 34 22q11 19 22 41q12 25 25 52l-26 -2q-43 -3 -78 5h-8q-9 2 -14 9.5t-3 16.5z" />
    <glyph glyph-name="currency" unicode="&#xa4;" horiz-adv-x="701" 
d="M177 527l-2 -4l1 -1q0 2 1 5zM294 395q-10 -15 -13 -36q-8 -50 22 -99.5t75 -53.5q54 -4 110 64q4 4 8 6q7 12 10 25q6 22 4 48q0 4 -1 8l-14 14q-52 51 -88 65q-32 13 -58 2q-3 -13 -15 -16q-13 -4 -23 -10q-4 -6 -9 -11q-3 -4 -8 -6zM118 159q12 20 35 42q13 12 32 27
q-31 49 -33 110.5t26 115.5q1 2 3 3l-11 11h-1q-24 23 -37 35q-7 6 -7.5 15t5.5 16q1 1 3 2q18 44 51 47q26 3 56 -23q12 -11 29 -29q64 28 120 29q58 1 105 -26l6 6q21 21 35 32q8 7 15 11q5 3 9 4q7 3 14 2t14 -7q3 -2 7 -7q5 -5 13 -15l1 -1q1 -1 1 -2q1 -1 5.5 -6.5
t5.5 -6.5q2 -3 4 -5l1 -2q7 -7 7 -16t-7 -15q-2 -3 -5 -4q-2 -6 -7 -11q-15 -13 -32 -30q37 -74 26 -157q-6 -49 -29 -88q18 -16 28 -27q24 -27 23 -51q-1 -26 -28 -43q-10 -10 -10 -11l-4 -4l-1 -1v-1q-5 -7 -14 -9t-16 2q-12 7 -11 20q-15 15 -48 41q-39 -32 -117 -28
q-67 4 -112 30q-4 -3 -10 -10t-7 -8q-21 -23 -34 -29q-21 -9 -47 3q-14 7 -49 34q-8 5 -9.5 14t4.5 16q0 1 1 1q0 2 1 4z" />
    <glyph glyph-name="quoteleft" unicode="&#x2018;" horiz-adv-x="515" 
d="M433 678q12 -6 12 -20v-1v-2v-1v-10q0 -8 -1 -13t-3 -8q-3 -8 -10 -12q-9 -6 -24 -6q-7 -1 -20 0h-1q-9 1 -13 1h-4h-2q-59 -19 -95 -67q-16 -20 -21 -41q3 -1 7 -2h2h2q49 -10 67 -47q15 -32 -1 -67t-50 -43q-39 -10 -74 22q-48 44 -40 110q8 55 52 110q40 51 95 80
q60 33 110 23q7 -1 12 -6z" />
    <glyph glyph-name="quoteright" unicode="&#x2019;" horiz-adv-x="447" 
d="M151 408q36 -3 72 27q30 26 52 70q-16 3 -30 15q-30 28 -34 81q-5 58 27 82q20 15 48 10q25 -5 56 -28q3 -3 5 -6l4 -2q18 -12 24 -24q2 -6 2 -13v-5v-2v-1v-1q-1 -6 0 -10q4 -35 -10 -78t-42 -82q-30 -43 -67 -68t-76 -28q-3 0 -9 -1q-2 -1 -5 -2q-11 -3 -15 -3
q-11 -3 -19 0q-20 6 -19 27q0 10 7 23q3 6 9 10q7 10 20 9z" />
    <glyph glyph-name="quotedblleft" unicode="&#x201c;" horiz-adv-x="762" 
d="M388 607q-11 -3 -18 -5q-23 -8 -38 -14q-58 -26 -75 -71q-3 -8 -3 -21h5q32 -2 55 -20q30 -24 24 -60q-9 -47 -30 -68q-25 -23 -57 -9q-23 11 -41.5 39t-27.5 65q-20 88 28 152q58 79 200 86q15 0 21 -12q10 -7 10 -19q0 -16 -15 -27q-8 -5 -22 -10q-6 -3 -16 -6z
M675 682q8 -2 13 -8t5 -14q0 -10 -7 -18q-3 -5 -10 -10q-7 -6 -24 -16q-2 -1 -15 -9t-16 -10q-20 -11 -35 -21q-43 -30 -65 -60q-3 -5 -7 -11q13 -2 24 -9q30 -19 44 -59t1 -71q-16 -42 -64 -38q-75 5 -101 62q-23 50 3 117q25 65 85 113q67 53 154 65q8 1 15 -3z" />
    <glyph glyph-name="quotedblright" unicode="&#x201d;" horiz-adv-x="670" 
d="M340 392q6 7 15 8q51 2 94 30.5t67 73.5q-5 1 -9 2q-39 10 -64 54q-26 47 -9 83q22 44 94 34q7 -1 12 -6q6 -2 11 -6q27 -19 40 -47q4 -10 6 -20q4 -7 3 -15q-7 -71 -49 -132q-35 -50 -86 -85q-46 -30 -85 -35q-22 -3 -37 5q-21 11 -20 36q1 17 17 20zM113 407
q24 -4 54 6.5t55 32.5q37 31 47 68q-32 -4 -57 16q-31 24 -37 66q-6 45 23 72q28 26 76 18q18 6 27 -10q7 -4 13 -10q10 -11 17 -32q12 -34 12 -59q0 -53 -41 -110q-35 -47 -86 -84q-50 -36 -87 -42q-26 -5 -40 8q-18 16 -11 44q2 9 9.5 14t16.5 3q1 0 2 -1q0 1 3 0.5
t4 -0.5z" />
    <glyph glyph-name="Euro" unicode="&#x20ac;" horiz-adv-x="702" 
d="M38 362q7 51 53 58q17 3 37 0q45 103 95 153q31 31 80 55q32 15 87 33q71 24 129 12h2q20 3 48 -14q7 -4 10 -13q8 -6 16 -14q21 -21 32 -48q8 -23 3 -47q-7 -32 -25 -44q-20 -14 -45 0q-29 16 -52 67q-5 10 -9 20q-4 5 -11 13q0 1 -2 3l-1 1q-17 22 -29 22
q-26 0 -57.5 -26.5t-62.5 -74.5t-56 -109q16 0 37 1q17 1 39 2h6q6 1 12 1.5t12.5 1t8.5 0.5q9 1 14 1q3 0 5.5 -0.5t4.5 -0.5q8 -2 12 -9q15 -20 1 -38q-8 -11 -26 -17q-22 -7 -67 -11q-37 -3 -85 -3q-3 -8 -5 -16q106 2 140 -11q9 -4 14 -11q8 -10 4 -22q-3 -11 -15 -20
q-18 -13 -34 -13h-40q-2 0 -3.5 -0.5t-2.5 -0.5h-36h-23h-22q-16 -96 5 -145q12 -27 35.5 -32.5t59.5 8.5q18 76 60 95q23 11 45.5 1.5t34.5 -33.5q12 -22 8 -48.5t-23 -47.5q-37 -39 -119 -46q-11 -7 -24 -10t-38 -3q-8 0 -12 -1h-6q-116 -8 -163 73q-37 66 -21 180
q1 4 2 9h-21h-12q-2 1 -3 1h-8l-12 2q3 4 1 9q-9 16 2 32q3 5 11 13q3 2 4 3l1 1q12 14 27 7q11 1 25 2q3 10 6 21q-21 -1 -37 2q-4 1 -7 3q-16 7 -14 23z" />
    <glyph glyph-name="uni3000" unicode="&#x3000;" horiz-adv-x="1000" 
 />
    <glyph glyph-name="uniF8FE" unicode="&#xf8fe;" horiz-adv-x="300" 
 />
    </font>
</defs>
</svg>
